<svg width="1046" height="632" viewBox="0 0 1046 632" fill="none" xmlns="http://www.w3.org/2000/svg">
<g id="Lucas baitola">
<rect width="1046" height="632" fill="white"/>
<rect id="Rectangle 1" x="69" y="20" width="80" height="580" fill="#10CC23"/>
<rect id="Rectangle 2" x="164" y="78" width="80" height="522" fill="#6310CC"/>
<rect id="Rectangle 3" x="259" y="136" width="80" height="464" fill="#CC1097"/>
<rect id="Rectangle 4" x="354" y="194" width="80" height="406" fill="#CC1010"/>
<rect id="Rectangle 5" x="449" y="252" width="80" height="348" fill="#CC4810"/>
<rect id="Rectangle 6" x="544" y="310" width="80" height="290" fill="#C8CC10"/>
<rect id="Rectangle 7" x="639" y="368" width="80" height="232" fill="#10CC66"/>
<rect id="Rectangle 8" x="734" y="426" width="80" height="174" fill="#10C1CC"/>
<rect id="Rectangle 9" x="829" y="484" width="80" height="116" fill="#B210CC"/>
<rect id="Rectangle 10" x="924" y="542" width="80" height="58" fill="#004DCD"/>
<line id="Line 1" x1="51" y1="19.5" x2="1023" y2="19.5" stroke="black"/>
<line id="Line 10" x1="51" y1="77.5" x2="1023" y2="77.5" stroke="black"/>
<line id="Line 11" x1="51" y1="193.5" x2="1023" y2="193.5" stroke="black"/>
<line id="Line 2" x1="51" y1="135.5" x2="1023" y2="135.5" stroke="black"/>
<line id="Line 3" x1="51" y1="251.5" x2="1023" y2="251.5" stroke="black"/>
<line id="Line 4" x1="51" y1="309.5" x2="1023" y2="309.5" stroke="black"/>
<line id="Line 5" x1="51" y1="367.5" x2="1023" y2="367.5" stroke="black"/>
<line id="Line 6" x1="51" y1="425.5" x2="1023" y2="425.5" stroke="black"/>
<line id="Line 7" x1="51" y1="483.5" x2="1023" y2="483.5" stroke="black"/>
<line id="Line 8" x1="51" y1="541.5" x2="1023" y2="541.5" stroke="black"/>
<line id="Line 9" x1="51" y1="599.5" x2="1023" y2="599.5" stroke="black"/>
<path id="0" d="M34.9805 598.542C34.9805 600.446 34.6553 601.861 34.0049 602.787C33.3545 603.713 32.3379 604.176 30.9551 604.176C29.5898 604.176 28.5791 603.725 27.9229 602.822C27.2666 601.914 26.9268 600.561 26.9033 598.762V596.591C26.9033 594.71 27.2285 593.312 27.8789 592.398C28.5293 591.484 29.5488 591.027 30.9375 591.027C32.3145 591.027 33.3281 591.47 33.9785 592.354C34.6289 593.233 34.9629 594.593 34.9805 596.433V598.542ZM33.3545 596.318C33.3545 594.941 33.1611 593.939 32.7744 593.312C32.3877 592.68 31.7754 592.363 30.9375 592.363C30.1055 592.363 29.499 592.677 29.1182 593.304C28.7373 593.931 28.541 594.895 28.5293 596.195V598.797C28.5293 600.18 28.7285 601.202 29.127 601.864C29.5312 602.521 30.1406 602.849 30.9551 602.849C31.7578 602.849 32.3525 602.538 32.7393 601.917C33.1318 601.296 33.3369 600.317 33.3545 598.981V596.318Z" fill="black"/>
<path id="30" d="M19.2129 425.811H20.4346C21.2021 425.799 21.8057 425.597 22.2451 425.204C22.6846 424.812 22.9043 424.281 22.9043 423.613C22.9043 422.113 22.1572 421.363 20.6631 421.363C19.96 421.363 19.3975 421.565 18.9756 421.97C18.5596 422.368 18.3516 422.898 18.3516 423.561H16.7256C16.7256 422.547 17.0947 421.706 17.833 421.038C18.5771 420.364 19.5205 420.027 20.6631 420.027C21.8701 420.027 22.8164 420.347 23.502 420.985C24.1875 421.624 24.5303 422.512 24.5303 423.648C24.5303 424.205 24.3486 424.744 23.9854 425.266C23.6279 425.787 23.1387 426.177 22.5176 426.435C23.2207 426.657 23.7627 427.026 24.1436 427.542C24.5303 428.058 24.7236 428.688 24.7236 429.432C24.7236 430.58 24.3486 431.491 23.5986 432.165C22.8486 432.839 21.873 433.176 20.6719 433.176C19.4707 433.176 18.4922 432.851 17.7363 432.2C16.9863 431.55 16.6113 430.691 16.6113 429.625H18.2461C18.2461 430.299 18.4658 430.838 18.9053 431.242C19.3447 431.646 19.9336 431.849 20.6719 431.849C21.457 431.849 22.0576 431.644 22.4736 431.233C22.8896 430.823 23.0977 430.234 23.0977 429.467C23.0977 428.723 22.8691 428.151 22.4121 427.753C21.9551 427.354 21.2959 427.149 20.4346 427.138H19.2129V425.811ZM34.9805 427.542C34.9805 429.446 34.6553 430.861 34.0049 431.787C33.3545 432.713 32.3379 433.176 30.9551 433.176C29.5898 433.176 28.5791 432.725 27.9229 431.822C27.2666 430.914 26.9268 429.561 26.9033 427.762V425.591C26.9033 423.71 27.2285 422.312 27.8789 421.398C28.5293 420.484 29.5488 420.027 30.9375 420.027C32.3145 420.027 33.3281 420.47 33.9785 421.354C34.6289 422.233 34.9629 423.593 34.9805 425.433V427.542ZM33.3545 425.318C33.3545 423.941 33.1611 422.939 32.7744 422.312C32.3877 421.68 31.7754 421.363 30.9375 421.363C30.1055 421.363 29.499 421.677 29.1182 422.304C28.7373 422.931 28.541 423.895 28.5293 425.195V427.797C28.5293 429.18 28.7285 430.202 29.127 430.864C29.5312 431.521 30.1406 431.849 30.9551 431.849C31.7578 431.849 32.3525 431.538 32.7393 430.917C33.1318 430.296 33.3369 429.317 33.3545 427.981V425.318Z" fill="black"/>
<path id="A" d="M110.681 617.66H105.319L104.115 621H102.375L107.262 608.203H108.738L113.634 621H111.902L110.681 617.66ZM105.829 616.271H110.18L108 610.286L105.829 616.271Z" fill="black"/>
<path id="B" d="M199.878 621V608.203H204.062C205.45 608.203 206.493 608.49 207.19 609.064C207.894 609.639 208.245 610.488 208.245 611.613C208.245 612.211 208.075 612.741 207.735 613.204C207.396 613.661 206.933 614.016 206.347 614.268C207.038 614.461 207.583 614.83 207.981 615.375C208.386 615.914 208.588 616.559 208.588 617.309C208.588 618.457 208.216 619.359 207.472 620.016C206.728 620.672 205.676 621 204.316 621H199.878ZM201.565 615.015V619.62H204.352C205.137 619.62 205.755 619.418 206.206 619.014C206.663 618.604 206.892 618.041 206.892 617.326C206.892 615.785 206.054 615.015 204.378 615.015H201.565ZM201.565 613.661H204.114C204.853 613.661 205.441 613.477 205.881 613.107C206.326 612.738 206.549 612.237 206.549 611.604C206.549 610.901 206.344 610.392 205.934 610.075C205.523 609.753 204.899 609.592 204.062 609.592H201.565V613.661Z" fill="black"/>
<path id="C" d="M305.036 616.939C304.878 618.293 304.377 619.339 303.533 620.077C302.695 620.81 301.579 621.176 300.185 621.176C298.673 621.176 297.46 620.634 296.546 619.55C295.638 618.466 295.184 617.016 295.184 615.199V613.969C295.184 612.779 295.395 611.733 295.816 610.831C296.244 609.929 296.848 609.237 297.627 608.757C298.406 608.271 299.309 608.027 300.334 608.027C301.693 608.027 302.783 608.408 303.604 609.17C304.424 609.926 304.901 610.975 305.036 612.316H303.34C303.193 611.297 302.874 610.559 302.382 610.102C301.896 609.645 301.213 609.416 300.334 609.416C299.256 609.416 298.409 609.814 297.794 610.611C297.185 611.408 296.88 612.542 296.88 614.013V615.252C296.88 616.641 297.17 617.745 297.75 618.565C298.33 619.386 299.142 619.796 300.185 619.796C301.122 619.796 301.84 619.585 302.338 619.163C302.842 618.735 303.176 617.994 303.34 616.939H305.036Z" fill="black"/>
<path id="D" d="M391.579 621V608.203H395.191C396.305 608.203 397.289 608.449 398.145 608.941C399 609.434 399.659 610.134 400.122 611.042C400.591 611.95 400.828 612.993 400.834 614.171V614.988C400.834 616.195 400.6 617.253 400.131 618.161C399.668 619.069 399.003 619.767 398.136 620.253C397.274 620.739 396.27 620.988 395.121 621H391.579ZM393.267 609.592V619.62H395.042C396.343 619.62 397.354 619.216 398.074 618.407C398.801 617.599 399.164 616.447 399.164 614.953V614.206C399.164 612.753 398.821 611.625 398.136 610.822C397.456 610.014 396.489 609.604 395.235 609.592H393.267Z" fill="black"/>
<path id="E" d="M496.104 615.085H490.558V619.62H497V621H488.87V608.203H496.912V609.592H490.558V613.705H496.104V615.085Z" fill="black"/>
<path id="F" d="M591.568 615.349H586.198V621H584.511V608.203H592.438V609.592H586.198V613.969H591.568V615.349Z" fill="black"/>
<path id="G" d="M689.299 619.321C688.865 619.942 688.259 620.408 687.479 620.719C686.706 621.023 685.804 621.176 684.772 621.176C683.729 621.176 682.804 620.933 681.995 620.446C681.187 619.954 680.56 619.257 680.114 618.354C679.675 617.452 679.449 616.406 679.438 615.217V614.101C679.438 612.173 679.886 610.679 680.782 609.618C681.685 608.558 682.95 608.027 684.579 608.027C685.915 608.027 686.99 608.37 687.805 609.056C688.619 609.735 689.117 610.702 689.299 611.956H687.611C687.295 610.263 686.287 609.416 684.588 609.416C683.457 609.416 682.599 609.814 682.013 610.611C681.433 611.402 681.14 612.551 681.134 614.057V615.103C681.134 616.538 681.462 617.681 682.118 618.53C682.774 619.374 683.662 619.796 684.781 619.796C685.414 619.796 685.968 619.726 686.442 619.585C686.917 619.444 687.31 619.207 687.62 618.873V615.999H684.658V614.628H689.299V619.321Z" fill="black"/>
<path id="H" d="M785.404 621H783.708V615.085H777.257V621H775.569V608.203H777.257V613.705H783.708V608.203H785.404V621Z" fill="black"/>
<path id="I" d="M877.344 621H875.656V608.203H877.344V621Z" fill="black"/>
<path id="J" d="M973.881 608.203H975.577V617.265C975.577 618.489 975.208 619.447 974.47 620.139C973.737 620.83 972.759 621.176 971.534 621.176C970.263 621.176 969.272 620.851 968.563 620.2C967.854 619.55 967.5 618.639 967.5 617.467H969.188C969.188 618.199 969.387 618.771 969.785 619.181C970.189 619.591 970.772 619.796 971.534 619.796C972.231 619.796 972.794 619.576 973.222 619.137C973.655 618.697 973.875 618.082 973.881 617.291V608.203Z" fill="black"/>
<path id="20" d="M25.2334 491H16.8486V489.831L21.2783 484.909C21.9346 484.165 22.3857 483.562 22.6318 483.099C22.8838 482.63 23.0098 482.146 23.0098 481.648C23.0098 480.98 22.8076 480.433 22.4033 480.005C21.999 479.577 21.46 479.363 20.7861 479.363C19.9775 479.363 19.3477 479.595 18.8965 480.058C18.4512 480.515 18.2285 481.153 18.2285 481.974H16.6025C16.6025 480.796 16.9805 479.844 17.7363 479.117C18.498 478.391 19.5146 478.027 20.7861 478.027C21.9756 478.027 22.916 478.341 23.6074 478.968C24.2988 479.589 24.6445 480.418 24.6445 481.455C24.6445 482.715 23.8418 484.215 22.2363 485.955L18.8086 489.673H25.2334V491ZM34.9805 485.542C34.9805 487.446 34.6553 488.861 34.0049 489.787C33.3545 490.713 32.3379 491.176 30.9551 491.176C29.5898 491.176 28.5791 490.725 27.9229 489.822C27.2666 488.914 26.9268 487.561 26.9033 485.762V483.591C26.9033 481.71 27.2285 480.312 27.8789 479.398C28.5293 478.484 29.5488 478.027 30.9375 478.027C32.3145 478.027 33.3281 478.47 33.9785 479.354C34.6289 480.233 34.9629 481.593 34.9805 483.433V485.542ZM33.3545 483.318C33.3545 481.941 33.1611 480.939 32.7744 480.312C32.3877 479.68 31.7754 479.363 30.9375 479.363C30.1055 479.363 29.499 479.677 29.1182 480.304C28.7373 480.931 28.541 481.895 28.5293 483.195V485.797C28.5293 487.18 28.7285 488.202 29.127 488.864C29.5312 489.521 30.1406 489.849 30.9551 489.849C31.7578 489.849 32.3525 489.538 32.7393 488.917C33.1318 488.296 33.3369 487.317 33.3545 485.981V483.318Z" fill="black"/>
<path id="10" d="M22.1924 549H20.5576V538.163L17.2793 539.367V537.891L21.9375 536.142H22.1924V549ZM34.9805 543.542C34.9805 545.446 34.6553 546.861 34.0049 547.787C33.3545 548.713 32.3379 549.176 30.9551 549.176C29.5898 549.176 28.5791 548.725 27.9229 547.822C27.2666 546.914 26.9268 545.561 26.9033 543.762V541.591C26.9033 539.71 27.2285 538.312 27.8789 537.398C28.5293 536.484 29.5488 536.027 30.9375 536.027C32.3145 536.027 33.3281 536.47 33.9785 537.354C34.6289 538.233 34.9629 539.593 34.9805 541.433V543.542ZM33.3545 541.318C33.3545 539.941 33.1611 538.939 32.7744 538.312C32.3877 537.68 31.7754 537.363 30.9375 537.363C30.1055 537.363 29.499 537.677 29.1182 538.304C28.7373 538.931 28.541 539.895 28.5293 541.195V543.797C28.5293 545.18 28.7285 546.202 29.127 546.864C29.5312 547.521 30.1406 547.849 30.9551 547.849C31.7578 547.849 32.3525 547.538 32.7393 546.917C33.1318 546.296 33.3369 545.317 33.3545 543.981V541.318Z" fill="black"/>
<path id="40" d="M23.7129 370.702H25.4883V372.029H23.7129V375H22.0781V372.029H16.251V371.071L21.9814 362.203H23.7129V370.702ZM18.0967 370.702H22.0781V364.427L21.8848 364.778L18.0967 370.702ZM34.9805 369.542C34.9805 371.446 34.6553 372.861 34.0049 373.787C33.3545 374.713 32.3379 375.176 30.9551 375.176C29.5898 375.176 28.5791 374.725 27.9229 373.822C27.2666 372.914 26.9268 371.561 26.9033 369.762V367.591C26.9033 365.71 27.2285 364.312 27.8789 363.398C28.5293 362.484 29.5488 362.027 30.9375 362.027C32.3145 362.027 33.3281 362.47 33.9785 363.354C34.6289 364.233 34.9629 365.593 34.9805 367.433V369.542ZM33.3545 367.318C33.3545 365.941 33.1611 364.939 32.7744 364.312C32.3877 363.68 31.7754 363.363 30.9375 363.363C30.1055 363.363 29.499 363.677 29.1182 364.304C28.7373 364.931 28.541 365.895 28.5293 367.195V369.797C28.5293 371.18 28.7285 372.202 29.127 372.864C29.5312 373.521 30.1406 373.849 30.9551 373.849C31.7578 373.849 32.3525 373.538 32.7393 372.917C33.1318 372.296 33.3369 371.317 33.3545 369.981V367.318Z" fill="black"/>
<path id="50" d="M17.5957 310.584L18.2461 304.203H24.8027V305.706H19.626L19.2393 309.195C19.8662 308.826 20.5781 308.642 21.375 308.642C22.541 308.642 23.4668 309.028 24.1523 309.802C24.8379 310.569 25.1807 311.609 25.1807 312.922C25.1807 314.24 24.8232 315.28 24.1084 316.042C23.3994 316.798 22.4062 317.176 21.1289 317.176C19.998 317.176 19.0752 316.862 18.3604 316.235C17.6455 315.608 17.2383 314.741 17.1387 313.634H18.6768C18.7764 314.366 19.0371 314.92 19.459 315.295C19.8809 315.664 20.4375 315.849 21.1289 315.849C21.8848 315.849 22.4766 315.591 22.9043 315.075C23.3379 314.56 23.5547 313.848 23.5547 312.939C23.5547 312.084 23.3203 311.398 22.8516 310.883C22.3887 310.361 21.7705 310.101 20.9971 310.101C20.2881 310.101 19.7314 310.256 19.3271 310.566L18.8965 310.918L17.5957 310.584ZM34.9805 311.542C34.9805 313.446 34.6553 314.861 34.0049 315.787C33.3545 316.713 32.3379 317.176 30.9551 317.176C29.5898 317.176 28.5791 316.725 27.9229 315.822C27.2666 314.914 26.9268 313.561 26.9033 311.762V309.591C26.9033 307.71 27.2285 306.312 27.8789 305.398C28.5293 304.484 29.5488 304.027 30.9375 304.027C32.3145 304.027 33.3281 304.47 33.9785 305.354C34.6289 306.233 34.9629 307.593 34.9805 309.433V311.542ZM33.3545 309.318C33.3545 307.941 33.1611 306.939 32.7744 306.312C32.3877 305.68 31.7754 305.363 30.9375 305.363C30.1055 305.363 29.499 305.677 29.1182 306.304C28.7373 306.931 28.541 307.895 28.5293 309.195V311.797C28.5293 313.18 28.7285 314.202 29.127 314.864C29.5312 315.521 30.1406 315.849 30.9551 315.849C31.7578 315.849 32.3525 315.538 32.7393 314.917C33.1318 314.296 33.3369 313.317 33.3545 311.981V309.318Z" fill="black"/>
<path id="60" d="M23.2295 246.194V247.574H22.9307C21.665 247.598 20.6572 247.973 19.9072 248.699C19.1572 249.426 18.7236 250.448 18.6064 251.767C19.2803 250.993 20.2002 250.606 21.3662 250.606C22.4795 250.606 23.3672 250.999 24.0293 251.784C24.6973 252.569 25.0312 253.583 25.0312 254.825C25.0312 256.144 24.6709 257.198 23.9502 257.989C23.2354 258.78 22.2744 259.176 21.0674 259.176C19.8428 259.176 18.8496 258.707 18.0879 257.77C17.3262 256.826 16.9453 255.613 16.9453 254.131V253.507C16.9453 251.151 17.4463 249.353 18.4482 248.11C19.4561 246.862 20.9531 246.224 22.9395 246.194H23.2295ZM21.0938 251.96C20.5371 251.96 20.0244 252.127 19.5557 252.461C19.0869 252.795 18.7617 253.214 18.5801 253.718V254.315C18.5801 255.37 18.8174 256.22 19.292 256.864C19.7666 257.509 20.3584 257.831 21.0674 257.831C21.7998 257.831 22.374 257.562 22.79 257.022C23.2119 256.483 23.4229 255.777 23.4229 254.904C23.4229 254.025 23.209 253.316 22.7812 252.777C22.3594 252.232 21.7969 251.96 21.0938 251.96ZM34.9805 253.542C34.9805 255.446 34.6553 256.861 34.0049 257.787C33.3545 258.713 32.3379 259.176 30.9551 259.176C29.5898 259.176 28.5791 258.725 27.9229 257.822C27.2666 256.914 26.9268 255.561 26.9033 253.762V251.591C26.9033 249.71 27.2285 248.312 27.8789 247.398C28.5293 246.484 29.5488 246.027 30.9375 246.027C32.3145 246.027 33.3281 246.47 33.9785 247.354C34.6289 248.233 34.9629 249.593 34.9805 251.433V253.542ZM33.3545 251.318C33.3545 249.941 33.1611 248.939 32.7744 248.312C32.3877 247.68 31.7754 247.363 30.9375 247.363C30.1055 247.363 29.499 247.677 29.1182 248.304C28.7373 248.931 28.541 249.895 28.5293 251.195V253.797C28.5293 255.18 28.7285 256.202 29.127 256.864C29.5312 257.521 30.1406 257.849 30.9551 257.849C31.7578 257.849 32.3525 257.538 32.7393 256.917C33.1318 256.296 33.3369 255.317 33.3545 253.981V251.318Z" fill="black"/>
<path id="70" d="M25.1104 189.117L19.8105 201H18.1055L23.3877 189.539H16.4619V188.203H25.1104V189.117ZM34.9805 195.542C34.9805 197.446 34.6553 198.861 34.0049 199.787C33.3545 200.713 32.3379 201.176 30.9551 201.176C29.5898 201.176 28.5791 200.725 27.9229 199.822C27.2666 198.914 26.9268 197.561 26.9033 195.762V193.591C26.9033 191.71 27.2285 190.312 27.8789 189.398C28.5293 188.484 29.5488 188.027 30.9375 188.027C32.3145 188.027 33.3281 188.47 33.9785 189.354C34.6289 190.233 34.9629 191.593 34.9805 193.433V195.542ZM33.3545 193.318C33.3545 191.941 33.1611 190.939 32.7744 190.312C32.3877 189.68 31.7754 189.363 30.9375 189.363C30.1055 189.363 29.499 189.677 29.1182 190.304C28.7373 190.931 28.541 191.895 28.5293 193.195V195.797C28.5293 197.18 28.7285 198.202 29.127 198.864C29.5312 199.521 30.1406 199.849 30.9551 199.849C31.7578 199.849 32.3525 199.538 32.7393 198.917C33.1318 198.296 33.3369 197.317 33.3545 195.981V193.318Z" fill="black"/>
<path id="80" d="M24.6094 133.543C24.6094 134.182 24.4395 134.75 24.0996 135.248C23.7656 135.746 23.3115 136.136 22.7373 136.417C23.4053 136.704 23.9326 137.123 24.3193 137.674C24.7119 138.225 24.9082 138.849 24.9082 139.546C24.9082 140.653 24.5332 141.535 23.7832 142.191C23.0391 142.848 22.0576 143.176 20.8389 143.176C19.6084 143.176 18.6211 142.848 17.877 142.191C17.1387 141.529 16.7695 140.647 16.7695 139.546C16.7695 138.854 16.957 138.23 17.332 137.674C17.7129 137.117 18.2373 136.695 18.9053 136.408C18.3369 136.127 17.8887 135.737 17.5605 135.239C17.2324 134.741 17.0684 134.176 17.0684 133.543C17.0684 132.465 17.4141 131.609 18.1055 130.977C18.7969 130.344 19.708 130.027 20.8389 130.027C21.9639 130.027 22.8721 130.344 23.5635 130.977C24.2607 131.609 24.6094 132.465 24.6094 133.543ZM23.2822 139.511C23.2822 138.796 23.0537 138.213 22.5967 137.762C22.1455 137.311 21.5537 137.085 20.8213 137.085C20.0889 137.085 19.5 137.308 19.0547 137.753C18.6152 138.198 18.3955 138.784 18.3955 139.511C18.3955 140.237 18.6094 140.809 19.0371 141.225C19.4707 141.641 20.0713 141.849 20.8389 141.849C21.6006 141.849 22.1982 141.641 22.6318 141.225C23.0654 140.803 23.2822 140.231 23.2822 139.511ZM20.8389 131.363C20.2002 131.363 19.6816 131.562 19.2832 131.961C18.8906 132.354 18.6943 132.89 18.6943 133.569C18.6943 134.22 18.8877 134.747 19.2744 135.151C19.667 135.55 20.1885 135.749 20.8389 135.749C21.4893 135.749 22.0078 135.55 22.3945 135.151C22.7871 134.747 22.9834 134.22 22.9834 133.569C22.9834 132.919 22.7812 132.389 22.377 131.979C21.9727 131.568 21.46 131.363 20.8389 131.363ZM34.9805 137.542C34.9805 139.446 34.6553 140.861 34.0049 141.787C33.3545 142.713 32.3379 143.176 30.9551 143.176C29.5898 143.176 28.5791 142.725 27.9229 141.822C27.2666 140.914 26.9268 139.561 26.9033 137.762V135.591C26.9033 133.71 27.2285 132.312 27.8789 131.398C28.5293 130.484 29.5488 130.027 30.9375 130.027C32.3145 130.027 33.3281 130.47 33.9785 131.354C34.6289 132.233 34.9629 133.593 34.9805 135.433V137.542ZM33.3545 135.318C33.3545 133.941 33.1611 132.939 32.7744 132.312C32.3877 131.68 31.7754 131.363 30.9375 131.363C30.1055 131.363 29.499 131.677 29.1182 132.304C28.7373 132.931 28.541 133.895 28.5293 135.195V137.797C28.5293 139.18 28.7285 140.202 29.127 140.864C29.5312 141.521 30.1406 141.849 30.9551 141.849C31.7578 141.849 32.3525 141.538 32.7393 140.917C33.1318 140.296 33.3369 139.317 33.3545 137.981V135.318Z" fill="black"/>
<path id="90" d="M23.0801 79.375C22.7402 79.7793 22.333 80.1045 21.8584 80.3506C21.3896 80.5967 20.874 80.7197 20.3115 80.7197C19.5732 80.7197 18.9287 80.5381 18.3779 80.1748C17.833 79.8115 17.4111 79.3018 17.1123 78.6455C16.8135 77.9834 16.6641 77.2539 16.6641 76.457C16.6641 75.6016 16.8252 74.8311 17.1475 74.1455C17.4756 73.46 17.9385 72.9355 18.5361 72.5723C19.1338 72.209 19.8311 72.0273 20.6279 72.0273C21.8936 72.0273 22.8896 72.502 23.6162 73.4512C24.3486 74.3945 24.7148 75.6836 24.7148 77.3184V77.793C24.7148 80.2832 24.2227 82.1025 23.2383 83.251C22.2539 84.3936 20.7686 84.9795 18.7822 85.0088H18.4658V83.6377H18.8086C20.1504 83.6143 21.1816 83.2656 21.9023 82.5918C22.623 81.9121 23.0156 80.8398 23.0801 79.375ZM20.5752 79.375C21.1201 79.375 21.6211 79.208 22.0781 78.874C22.541 78.54 22.8779 78.127 23.0889 77.6348V76.9844C23.0889 75.918 22.8574 75.0508 22.3945 74.3828C21.9316 73.7148 21.3457 73.3809 20.6367 73.3809C19.9219 73.3809 19.3477 73.6562 18.9141 74.207C18.4805 74.752 18.2637 75.4727 18.2637 76.3691C18.2637 77.2422 18.4717 77.9629 18.8877 78.5312C19.3096 79.0938 19.8721 79.375 20.5752 79.375ZM34.9805 79.542C34.9805 81.4463 34.6553 82.8613 34.0049 83.7871C33.3545 84.7129 32.3379 85.1758 30.9551 85.1758C29.5898 85.1758 28.5791 84.7246 27.9229 83.8223C27.2666 82.9141 26.9268 81.5605 26.9033 79.7617V77.5908C26.9033 75.71 27.2285 74.3125 27.8789 73.3984C28.5293 72.4844 29.5488 72.0273 30.9375 72.0273C32.3145 72.0273 33.3281 72.4697 33.9785 73.3545C34.6289 74.2334 34.9629 75.5928 34.9805 77.4326V79.542ZM33.3545 77.3184C33.3545 75.9414 33.1611 74.9395 32.7744 74.3125C32.3877 73.6797 31.7754 73.3633 30.9375 73.3633C30.1055 73.3633 29.499 73.6768 29.1182 74.3037C28.7373 74.9307 28.541 75.8945 28.5293 77.1953V79.7969C28.5293 81.1797 28.7285 82.2021 29.127 82.8643C29.5312 83.5205 30.1406 83.8486 30.9551 83.8486C31.7578 83.8486 32.3525 83.5381 32.7393 82.917C33.1318 82.2959 33.3369 81.3174 33.3545 79.9814V77.3184Z" fill="black"/>
<path id="100" d="M12.085 27H10.4502V16.1631L7.17188 17.3672V15.8906L11.8301 14.1416H12.085V27ZM24.873 21.542C24.873 23.4463 24.5479 24.8613 23.8975 25.7871C23.2471 26.7129 22.2305 27.1758 20.8477 27.1758C19.4824 27.1758 18.4717 26.7246 17.8154 25.8223C17.1592 24.9141 16.8193 23.5605 16.7959 21.7617V19.5908C16.7959 17.71 17.1211 16.3125 17.7715 15.3984C18.4219 14.4844 19.4414 14.0273 20.8301 14.0273C22.207 14.0273 23.2207 14.4697 23.8711 15.3545C24.5215 16.2334 24.8555 17.5928 24.873 19.4326V21.542ZM23.2471 19.3184C23.2471 17.9414 23.0537 16.9395 22.667 16.3125C22.2803 15.6797 21.668 15.3633 20.8301 15.3633C19.998 15.3633 19.3916 15.6768 19.0107 16.3037C18.6299 16.9307 18.4336 17.8945 18.4219 19.1953V21.7969C18.4219 23.1797 18.6211 24.2021 19.0195 24.8643C19.4238 25.5205 20.0332 25.8486 20.8477 25.8486C21.6504 25.8486 22.2451 25.5381 22.6318 24.917C23.0244 24.2959 23.2295 23.3174 23.2471 21.9814V19.3184ZM34.9805 21.542C34.9805 23.4463 34.6553 24.8613 34.0049 25.7871C33.3545 26.7129 32.3379 27.1758 30.9551 27.1758C29.5898 27.1758 28.5791 26.7246 27.9229 25.8223C27.2666 24.9141 26.9268 23.5605 26.9033 21.7617V19.5908C26.9033 17.71 27.2285 16.3125 27.8789 15.3984C28.5293 14.4844 29.5488 14.0273 30.9375 14.0273C32.3145 14.0273 33.3281 14.4697 33.9785 15.3545C34.6289 16.2334 34.9629 17.5928 34.9805 19.4326V21.542ZM33.3545 19.3184C33.3545 17.9414 33.1611 16.9395 32.7744 16.3125C32.3877 15.6797 31.7754 15.3633 30.9375 15.3633C30.1055 15.3633 29.499 15.6768 29.1182 16.3037C28.7373 16.9307 28.541 17.8945 28.5293 19.1953V21.7969C28.5293 23.1797 28.7285 24.2021 29.127 24.8643C29.5312 25.5205 30.1406 25.8486 30.9551 25.8486C31.7578 25.8486 32.3525 25.5381 32.7393 24.917C33.1318 24.2959 33.3369 23.3174 33.3545 21.9814V19.3184Z" fill="black"/>
</g>
</svg>
