<svg width="1000" height="500" xmlns="http://www.w3.org/2000/svg" viewBox="0,0,1000,500"><g transform="translate(0,470)" fill="none" font-size="10" font-family="sans-serif" text-anchor="middle"><path class="domain" stroke="currentColor" d="M40.5,6V0.5H970.5V6"></path><g class="tick" opacity="1" transform="translate(40.5,0)"><line stroke="currentColor" y2="6"></line><text fill="currentColor" y="9" dy="0.71em">07/05</text></g><g class="tick" opacity="1" transform="translate(173.35714285714283,0)"><line stroke="currentColor" y2="6"></line><text fill="currentColor" y="9" dy="0.71em">08/05</text></g><g class="tick" opacity="1" transform="translate(306.21428571428567,0)"><line stroke="currentColor" y2="6"></line><text fill="currentColor" y="9" dy="0.71em">09/05</text></g><g class="tick" opacity="1" transform="translate(439.0714285714285,0)"><line stroke="currentColor" y2="6"></line><text fill="currentColor" y="9" dy="0.71em">10/05</text></g><g class="tick" opacity="1" transform="translate(571.9285714285713,0)"><line stroke="currentColor" y2="6"></line><text fill="currentColor" y="9" dy="0.71em">11/05</text></g><g class="tick" opacity="1" transform="translate(704.7857142857143,0)"><line stroke="currentColor" y2="6"></line><text fill="currentColor" y="9" dy="0.71em">12/05</text></g><g class="tick" opacity="1" transform="translate(837.642857142857,0)"><line stroke="currentColor" y2="6"></line><text fill="currentColor" y="9" dy="0.71em">13/05</text></g><g class="tick" opacity="1" transform="translate(970.5,0)"><line stroke="currentColor" y2="6"></line><text fill="currentColor" y="9" dy="0.71em">14/05</text></g></g><g transform="translate(40,0)" fill="none" font-size="10" font-family="sans-serif" text-anchor="end"><path class="domain" stroke="currentColor" d="M-6,470.5H0.5V20.5H-6"></path><g class="tick" opacity="1" transform="translate(0,470.5)"><line stroke="currentColor" x2="-6"></line><text fill="currentColor" x="-9" dy="0.32em">0</text></g><g class="tick" opacity="1" transform="translate(0,425.5)"><line stroke="currentColor" x2="-6"></line><text fill="currentColor" x="-9" dy="0.32em">10</text></g><g class="tick" opacity="1" transform="translate(0,380.5)"><line stroke="currentColor" x2="-6"></line><text fill="currentColor" x="-9" dy="0.32em">20</text></g><g class="tick" opacity="1" transform="translate(0,335.5)"><line stroke="currentColor" x2="-6"></line><text fill="currentColor" x="-9" dy="0.32em">30</text></g><g class="tick" opacity="1" transform="translate(0,290.5)"><line stroke="currentColor" x2="-6"></line><text fill="currentColor" x="-9" dy="0.32em">40</text></g><g class="tick" opacity="1" transform="translate(0,245.5)"><line stroke="currentColor" x2="-6"></line><text fill="currentColor" x="-9" dy="0.32em">50</text></g><g class="tick" opacity="1" transform="translate(0,200.5)"><line stroke="currentColor" x2="-6"></line><text fill="currentColor" x="-9" dy="0.32em">60</text></g><g class="tick" opacity="1" transform="translate(0,155.50000000000003)"><line stroke="currentColor" x2="-6"></line><text fill="currentColor" x="-9" dy="0.32em">70</text></g><g class="tick" opacity="1" transform="translate(0,110.49999999999999)"><line stroke="currentColor" x2="-6"></line><text fill="currentColor" x="-9" dy="0.32em">80</text></g><g class="tick" opacity="1" transform="translate(0,65.5)"><line stroke="currentColor" x2="-6"></line><text fill="currentColor" x="-9" dy="0.32em">90</text></g><g class="tick" opacity="1" transform="translate(0,20.5)"><line stroke="currentColor" x2="-6"></line><text fill="currentColor" x="-9" dy="0.32em">100</text><text fill="currentColor" x="3" dy="0.32em" text-anchor="start" font-weight="bold"></text></g></g><path fill="none" stroke="steelblue" stroke-width="1.5" stroke-linejoin="round" stroke-linecap="round" d="M40,380C40,380,150.7142857142857,109.99999999999999,172.85714285714283,109.99999999999999C194.99999999999997,109.99999999999999,283.57142857142856,380,305.71428571428567,380C327.8571428571428,380,416.42857142857133,109.99999999999999,438.5714285714285,109.99999999999999C460.71428571428567,109.99999999999999,549.2857142857142,380,571.4285714285713,380C593.5714285714284,380,682.1428571428572,109.99999999999999,704.2857142857143,109.99999999999999C726.4285714285714,109.99999999999999,814.9999999999999,380,837.142857142857,380C859.2857142857141,380,970,109.99999999999999,970,109.99999999999999"></path></svg>