<svg width="1000" height="500" xmlns="http://www.w3.org/2000/svg" viewBox="0,0,1000,500"><g transform="translate(0,470)" fill="none" font-size="10" font-family="sans-serif" text-anchor="middle"><path class="domain" stroke="currentColor" d="M40.5,0.5H970.5"></path><g class="tick" opacity="1" transform="translate(40.5,0)"><line stroke="currentColor" y2="6"></line><text fill="currentColor" y="9" dy="0.71em">.965</text></g><g class="tick" opacity="1" transform="translate(151.21428571428572,0)"><line stroke="currentColor" y2="6"></line><text fill="currentColor" y="9" dy="0.71em">.970</text></g><g class="tick" opacity="1" transform="translate(261.9285714285714,0)"><line stroke="currentColor" y2="6"></line><text fill="currentColor" y="9" dy="0.71em">.975</text></g><g class="tick" opacity="1" transform="translate(372.64285714285717,0)"><line stroke="currentColor" y2="6"></line><text fill="currentColor" y="9" dy="0.71em">.980</text></g><g class="tick" opacity="1" transform="translate(483.35714285714283,0)"><line stroke="currentColor" y2="6"></line><text fill="currentColor" y="9" dy="0.71em">.985</text></g><g class="tick" opacity="1" transform="translate(594.0714285714286,0)"><line stroke="currentColor" y2="6"></line><text fill="currentColor" y="9" dy="0.71em">.990</text></g><g class="tick" opacity="1" transform="translate(704.7857142857143,0)"><line stroke="currentColor" y2="6"></line><text fill="currentColor" y="9" dy="0.71em">.995</text></g><g class="tick" opacity="1" transform="translate(815.5,0)"><line stroke="currentColor" y2="6"></line><text fill="currentColor" y="9" dy="0.71em">:02</text></g><g class="tick" opacity="1" transform="translate(926.2142857142857,0)"><line stroke="currentColor" y2="6"></line><text fill="currentColor" y="9" dy="0.71em">.005</text></g></g><g transform="translate(40,0)" fill="none" font-size="10" font-family="sans-serif" text-anchor="end"><g class="tick" opacity="1" transform="translate(0,470.5)"><line stroke="currentColor" x2="-6"></line><text fill="currentColor" x="-9" dy="0.32em">0</text></g><g class="tick" opacity="1" transform="translate(0,425.5)"><line stroke="currentColor" x2="-6"></line><text fill="currentColor" x="-9" dy="0.32em">20</text></g><g class="tick" opacity="1" transform="translate(0,380.5)"><line stroke="currentColor" x2="-6"></line><text fill="currentColor" x="-9" dy="0.32em">40</text></g><g class="tick" opacity="1" transform="translate(0,335.5)"><line stroke="currentColor" x2="-6"></line><text fill="currentColor" x="-9" dy="0.32em">60</text></g><g class="tick" opacity="1" transform="translate(0,290.5)"><line stroke="currentColor" x2="-6"></line><text fill="currentColor" x="-9" dy="0.32em">80</text></g><g class="tick" opacity="1" transform="translate(0,245.5)"><line stroke="currentColor" x2="-6"></line><text fill="currentColor" x="-9" dy="0.32em">100</text></g><g class="tick" opacity="1" transform="translate(0,200.5)"><line stroke="currentColor" x2="-6"></line><text fill="currentColor" x="-9" dy="0.32em">120</text></g><g class="tick" opacity="1" transform="translate(0,155.50000000000003)"><line stroke="currentColor" x2="-6"></line><text fill="currentColor" x="-9" dy="0.32em">140</text></g><g class="tick" opacity="1" transform="translate(0,110.49999999999999)"><line stroke="currentColor" x2="-6"></line><text fill="currentColor" x="-9" dy="0.32em">160</text></g><g class="tick" opacity="1" transform="translate(0,65.5)"><line stroke="currentColor" x2="-6"></line><text fill="currentColor" x="-9" dy="0.32em">180</text></g><g class="tick" opacity="1" transform="translate(0,20.5)"><line stroke="currentColor" x2="-6"></line><text fill="currentColor" x="-9" dy="0.32em">200</text><text fill="currentColor" x="3" dy="0.32em" text-anchor="start" font-weight="bold"></text></g></g><path fill="none" stroke="steelblue" stroke-width="1.5" stroke-linejoin="round" stroke-linecap="round" d="M372.14285714285717,260.21000000000004L350,255.4625L327.8571428571429,247.61L305.71428571428567,245.17999999999998L239.28571428571425,245.45L837.142857142857,246.19250000000002L815,244.12249999999997L792.8571428571429,244.1L770.7142857142857,243.17749999999998L704.2857142857143,236.17999999999998L682.1428571428571,233.615L660,229.51999999999998L660,228.48499999999999L637.857142857143,225.335L571.4285714285713,223.94000000000003L549.2857142857143,228.08L527.1428571428572,228.48499999999999L505,223.76L482.85714285714283,222.45499999999998L416.42857142857144,218.045L394.2857142857143,214.53500000000003L372.14285714285717,215.99749999999997L350,220.9475L327.8571428571429,214.35499999999996L239.28571428571425,212.7125L217.14285714285714,202.7675L195,197.32250000000002L815,203.59999999999997L748.5714285714286,197.0075L726.4285714285714,193.99249999999998L704.2857142857143,191.81000000000003L682.1428571428571,190.84250000000003L660,189.89750000000004L615.7142857142857,199.57250000000002L593.5714285714286,199.145L571.4285714285713,205.625L549.2857142857143,202.8125L527.1428571428572,198.875L460.7142857142857,188.54749999999996L438.5714285714285,191.76500000000004L416.42857142857144,196.5125L394.2857142857143,191.22499999999997L372.14285714285717,193.25000000000003L305.71428571428567,194.73499999999999L283.5714285714286,200.78749999999997L261.4285714285714,195.74749999999997L239.28571428571425,198.74L217.14285714285714,195.40999999999997L770.7142857142857,197.16499999999996L748.5714285714286,183.8675L704.2857142857143,171.31250000000003L682.1428571428571,172.32499999999996L615.7142857142857,176.7575L615.7142857142857,172.21250000000003L593.5714285714286,172.12250000000003L571.4285714285713,168.3425L549.2857142857143,160.10750000000002L482.85714285714283,159.275L460.7142857142857,157.4525L438.5714285714285,159.23000000000002L416.42857142857144,155.00000000000003L394.2857142857143,146.5625L327.8571428571429,146.67500000000004L305.71428571428567,166.49750000000006L283.5714285714286,161.16500000000005L261.4285714285714,141.5L239.28571428571425,146.3375L172.85714285714283,151.78249999999997L150.71428571428572,173.54000000000002L770.7142857142857,166.24999999999997L748.5714285714286,162.8975L726.4285714285714,173.3375L660,165.6875L637.857142857143,166.1825L615.7142857142857,168.47750000000005L593.5714285714286,185.6225L593.5714285714286,188.75L527.1428571428572,182.4725L505,190.9325L482.85714285714283,200.225L460.7142857142857,206.63750000000005L438.5714285714285,195.36499999999995L372.14285714285717,195.00500000000002L350,182.96750000000006L327.8571428571429,171.85250000000002L305.71428571428567,175.0925L283.5714285714286,165.57499999999996L217.14285714285714,172.4375L195,184.655L172.85714285714283,168.31999999999994L150.71428571428572,163.4375L128.57142857142856,158.42000000000002L682.1428571428571,145.64L660,162.29L637.857142857143,166.22750000000005L615.7142857142857,173.51749999999998L571.4285714285713,162.4025L549.2857142857143,165.1475L527.1428571428572,162.08749999999998L505,161.30000000000004L482.85714285714283,157.67749999999998L416.42857142857144,158.57750000000004L394.2857142857143,152.93000000000006L372.14285714285717,153.26749999999996L350,154.3025L327.8571428571429,145.6625L261.4285714285714,136.36999999999998L239.28571428571425,125.34499999999998L217.14285714285714,126.26749999999998L195,122.37500000000001L172.85714285714283,124.69250000000001L726.4285714285714,118.23499999999997L704.2857142857143,113.48750000000004L682.1428571428571,114.68000000000002L660,118.46L637.857142857143,106.73750000000004L571.4285714285713,92.20249999999999L549.2857142857143,92.31499999999998L549.2857142857143,94.72250000000001L527.1428571428572,104.98250000000003L505,93.68749999999997L438.5714285714285,94.29500000000002L416.42857142857144,88.44499999999995L394.2857142857143,81.3125L372.14285714285717,79.62499999999997L350,86.55500000000002L283.5714285714286,77.69L261.4285714285714,51.140000000000015L239.28571428571425,51.65749999999996L217.14285714285714,58.744999999999976L195,54.425000000000004L128.57142857142856,53.5475L106.42857142857142,49.24999999999998L84.28571428571428,42.61250000000001L704.2857142857143,48.259999999999984L682.1428571428571,47.29249999999999L615.7142857142857,51.09499999999997L593.5714285714286,38.47250000000001L571.4285714285713,50.82499999999995L549.2857142857143,75.19250000000002L527.1428571428572,97.91750000000002L482.85714285714283,124.04000000000002L460.7142857142857,87.58999999999999L438.5714285714285,96.25249999999994L416.42857142857144,100.32499999999999L394.2857142857143,95.62250000000002L327.8571428571429,101.11250000000001L305.71428571428567,90.08750000000003L283.5714285714286,90.96499999999997L239.28571428571425,84.03500000000004L172.85714285714283,81.78500000000005L150.71428571428572,76.67750000000001L128.57142857142856,64.505L106.42857142857142,55.3475L84.28571428571428,60.00499999999999L637.857142857143,67.56499999999996L615.7142857142857,65.4275L593.5714285714286,52.625L571.4285714285713,42.61250000000001L549.2857142857143,32.82499999999999L505,33.02749999999997L482.85714285714283,45.78500000000001L460.7142857142857,40.56499999999998L438.5714285714285,38.38249999999997L416.42857142857144,41.62250000000002L350,55.09999999999998L327.8571428571429,58.29500000000003L305.71428571428567,57.98000000000001L283.5714285714286,48.777499999999975L261.4285714285714,33.70249999999999L195,22.699999999999953L150.71428571428572,22.36250000000004L128.57142857142856,23.217499999999994L106.42857142857142,20.382499999999958L40,24.319999999999972L925.7142857142857,31.60999999999997L903.5714285714287,31.407499999999995L881.4285714285714,64.88749999999996L815,70.31000000000006L792.8571428571429,84.68750000000001L770.7142857142857,66.35L770.7142857142857,69.455L748.5714285714286,81.44750000000002L682.1428571428571,67.74499999999999L660,89.66000000000003L637.857142857143,110.81000000000004L615.7142857142857,107.99750000000004L593.5714285714286,106.93999999999997L505,119.81000000000004L482.85714285714283,157.09250000000006L460.7142857142857,164.90000000000003L438.5714285714285,177.47750000000005L372.14285714285717,177.47750000000005L350,174.03500000000003L327.8571428571429,172.59499999999997L305.71428571428567,165.43999999999997L925.7142857142857,169.06250000000003L859.2857142857143,173.7875L837.142857142857,178.94L815,195.5L792.8571428571429,197.21L770.7142857142857,187.66999999999996L726.4285714285714,178.73749999999998L704.2857142857143,189.065L682.1428571428571,178.85L660,183.21500000000003L637.857142857143,189.5825L549.2857142857143,195.095L527.1428571428572,191.405L505,196.535L482.85714285714283,201.21500000000003L416.42857142857144,200.58499999999998L394.2857142857143,201.9125L372.14285714285717,193.33999999999997L350,177.70250000000004L327.8571428571429,188.705L859.2857142857143,196.1075L837.142857142857,189.605L815,189.89750000000004L792.8571428571429,197.90749999999997L770.7142857142857,194.9375L726.4285714285714,200.69749999999996L704.2857142857143,183.46250000000003L682.1428571428571,186.4325L660,182.13500000000005L637.857142857143,185.1275L571.4285714285713,184.8575L549.2857142857143,171.15500000000006L527.1428571428572,178.2425L505,170.1425L416.42857142857144,156.0575L394.2857142857143,152.79500000000002L372.14285714285717,143.61499999999998L350,154.4375L327.8571428571429,148.2275L261.4285714285714,147.12499999999997L881.4285714285714,133.55749999999998L859.2857142857143,138.14749999999998L837.142857142857,128.87749999999994L815,125.56999999999996L748.5714285714286,119.24750000000002L726.4285714285714,126.11000000000001L704.2857142857143,129.26000000000002L704.2857142857143,122.26249999999997L682.1428571428571,138.93500000000006L615.7142857142857,137.495L593.5714285714286,136.145L571.4285714285713,124.17500000000003L549.2857142857143,122.39749999999997L527.1428571428572,107.66000000000004L460.7142857142857,91.64L438.5714285714285,109.55000000000003L416.42857142857144,103.49750000000004L394.2857142857143,89.88499999999999L372.14285714285717,88.10750000000004L305.71428571428567,82.45999999999997L283.5714285714286,76.13749999999996L261.4285714285714,78.61250000000004L859.2857142857143,65L837.142857142857,62.88500000000002L770.7142857142857,54.357500000000016L748.5714285714286,50.014999999999986L726.4285714285714,59.172499999999985L704.2857142857143,53.614999999999995L682.1428571428571,57.23750000000005L637.857142857143,46.640000000000015L615.7142857142857,42.58999999999996L593.5714285714286,50.91500000000004L571.4285714285713,43.1075L549.2857142857143,47.854999999999976L482.85714285714283,56.900000000000034L460.7142857142857,51.72500000000001L438.5714285714285,69.07249999999999L416.42857142857144,71.63749999999996L394.2857142857143,62.36750000000003L305.71428571428567,50.532499999999985L283.5714285714286,49.227500000000035L261.4285714285714,49.9475L239.28571428571425,45.312500000000014L815,51.275000000000006L792.8571428571429,52.917499999999976L770.7142857142857,53.322500000000026L748.5714285714286,43.78249999999998L726.4285714285714,52.31000000000004L660,61.37749999999999L660,52.31000000000004L637.857142857143,63.177499999999995L615.7142857142857,80.16500000000002L593.5714285714286,82.16749999999999L527.1428571428572,72.11000000000001L505,61.78249999999999L482.85714285714283,67.81249999999997L460.7142857142857,62.974999999999966L438.5714285714285,75.64249999999997L372.14285714285717,80.38999999999999L350,80.18750000000001L327.8571428571429,70.87250000000004L305.71428571428567,91.41500000000002L283.5714285714286,87.29749999999999L217.14285714285714,93.26000000000002L815,76.96999999999997L792.8571428571429,91.59500000000001L770.7142857142857,87.22999999999999L682.1428571428571,75.88999999999999L660,66.01249999999997L637.857142857143,77.93750000000001L637.857142857143,72.58250000000001L615.7142857142857,81.69499999999994L549.2857142857143,78.77000000000002L527.1428571428572,88.31000000000002L505,81.17750000000001L482.85714285714283,83.42750000000001L460.7142857142857,98.41250000000001L394.2857142857143,95.84750000000005L372.14285714285717,105.45499999999998L350,95.91500000000002L327.8571428571429,112.18249999999999L305.71428571428567,105.23L239.28571428571425,122.6L217.14285714285714,116.56999999999995L195,110.27L172.85714285714283,112.36250000000001L792.8571428571429,117.515L726.4285714285714,125.23249999999999L704.2857142857143,108.56000000000003L682.1428571428571,100.57250000000002L660,101.96750000000002L637.857142857143,88.5125L593.5714285714286,79.49L571.4285714285713,72.35750000000003L549.2857142857143,66.57499999999996L527.1428571428572,66.53000000000002L505,74.58499999999998L438.5714285714285,75.37250000000004L416.42857142857144,79.55749999999998L394.2857142857143,74.36000000000001L372.14285714285717,77.84750000000003L350,72.2225L283.5714285714286,81.76249999999999L261.4285714285714,79.31000000000002L239.28571428571425,76.99250000000002L217.14285714285714,79.08499999999998L195,88.55749999999999L748.5714285714286,96.07250000000002L726.4285714285714,94.34L704.2857142857143,107.25499999999998L682.1428571428571,109.59499999999997L615.7142857142857,114.68000000000002L593.5714285714286,128.71999999999997L593.5714285714286,128.87749999999994L571.4285714285713,126.53750000000001L549.2857142857143,134.885L482.85714285714283,154.18999999999997L460.7142857142857,155.26999999999998L438.5714285714285,182.3825L416.42857142857144,168.29749999999999L394.2857142857143,152.95250000000001L327.8571428571429,175.13749999999993L305.71428571428567,184.61L283.5714285714286,180.40249999999997L261.4285714285714,173.15749999999997L239.28571428571425,181.46L172.85714285714283,233.16500000000002L150.71428571428572,214.265L748.5714285714286,224.48000000000002L726.4285714285714,244.775L704.2857142857143,251.59250000000003L637.857142857143,249.18499999999997L615.7142857142857,269.39L593.5714285714286,267.9725L571.4285714285713,270.33500000000004L571.4285714285713,252.20000000000002L505,221.915L482.85714285714283,235.82L460.7142857142857,249.61249999999998L438.5714285714285,240.7475L416.42857142857144,250.84999999999997L350,248.51000000000002L327.8571428571429,264.14750000000004L305.71428571428567,252.0425L283.5714285714286,248.98250000000002L261.4285714285714,253.145L195,262.79749999999996L172.85714285714283,245.20250000000004L150.71428571428572,234.76250000000005L128.57142857142856,220.16L106.42857142857142,227.92249999999996L682.1428571428571,229.34000000000003L660,220.2725L637.857142857143,237.57500000000005L615.7142857142857,247.02499999999998L593.5714285714286,248.96000000000004L549.2857142857143,254.26999999999998L527.1428571428572,256.7675L505,267.23L482.85714285714283,253.01000000000002L460.7142857142857,266.96L394.2857142857143,271.685L372.14285714285717,267.7025L350,275.84749999999997L327.8571428571429,288.8975L305.71428571428567,284.19499999999994L239.28571428571425,260.8625L217.14285714285714,265.7L195,256.25L172.85714285714283,256.25L150.71428571428572,261.49250000000006L704.2857142857143,269.9075L682.1428571428571,261.9425L660,254.225L637.857142857143,264.32750000000004L615.7142857142857,258.5L549.2857142857143,245.63000000000005L527.1428571428572,244.865L527.1428571428572,249.0275L505,256.25L482.85714285714283,248.8925L416.42857142857144,256.8125L394.2857142857143,255.28250000000003L372.14285714285717,269.39L350,268.78249999999997L327.8571428571429,267.5L261.4285714285714,277.08500000000004L239.28571428571425,275.645L217.14285714285714,278.66L195,278.66L172.85714285714283,276.92750000000007L106.42857142857142,275.12750000000005L84.28571428571428,275.84749999999997L62.14285714285714,277.96250000000003L970,277.96250000000003L947.8571428571429,265.8125L881.4285714285714,257.195L859.2857142857143,260.70500000000004L837.142857142857,265.2275L815,261.425L792.8571428571429,266.195L748.5714285714286,270.515L726.4285714285714,272.65250000000003L704.2857142857143,278.00750000000005L682.1428571428571,282.395L660,284.7575L571.4285714285713,294.05L549.2857142857143,283.6325L527.1428571428572,271.19000000000005L505,271.19000000000005L438.5714285714285,268.31L416.42857142857144,265.85749999999996L394.2857142857143,258.04999999999995L372.14285714285717,260.74999999999994L350,267.2075L925.7142857142857,264.10249999999996L903.5714285714287,260.79499999999996L881.4285714285714,259.5125L859.2857142857143,252.965L837.142857142857,245.63000000000005L770.7142857142857,239.35249999999996L770.7142857142857,249.8825L748.5714285714286,252.155L726.4285714285714,246.6425L704.2857142857143,246.89L615.7142857142857,257.3075L593.5714285714286,257.66749999999996L571.4285714285713,266.06L549.2857142857143,264.8L482.85714285714283,274.3625L460.7142857142857,266.9375L438.5714285714285,264.89L416.42857142857144,269.32249999999993L394.2857142857143,269.0525L903.5714285714287,272.135L881.4285714285714,271.16749999999996L859.2857142857143,264.86749999999995L837.142857142857,270.11L815,278.075L748.5714285714286,283.0025L748.5714285714286,270.58250000000004L726.4285714285714,261.47L704.2857142857143,253.21250000000003L682.1428571428571,254.15749999999997L615.7142857142857,255.30499999999998L593.5714285714286,245.76500000000001L571.4285714285713,241.58L549.2857142857143,241.35500000000002L527.1428571428572,241.42249999999999L460.7142857142857,227.765L438.5714285714285,230.37500000000003L416.42857142857144,230.3975L394.2857142857143,222.7925L372.14285714285717,229.5875L305.71428571428567,234.89750000000004L283.5714285714286,233.47999999999996L903.5714285714287,225.44750000000002L881.4285714285714,216.40249999999997L859.2857142857143,209.0225L792.8571428571429,203.48749999999998L770.7142857142857,211.25000000000003L748.5714285714286,208.28L726.4285714285714,200.9675L726.4285714285714,200.9675L660,199.505L637.857142857143,203.80249999999998L615.7142857142857,205.30999999999997L593.5714285714286,196.73749999999998L571.4285714285713,192.305L505,198.875L482.85714285714283,196.04L460.7142857142857,196.6025L438.5714285714285,187.85L416.42857142857144,191.22499999999997L350,189.3575L327.8571428571429,191.22499999999997L305.71428571428567,188.435L283.5714285714286,186.8825L881.4285714285714,183.71L815,172.8425L792.8571428571429,171.40249999999997L770.7142857142857,171.875L748.5714285714286,179.615L726.4285714285714,179.3225"></path></svg>