<svg width="1000" height="1000" xmlns="http://www.w3.org/2000/svg">
<g><g transform="translate(0,0)" fill="none" font-size="10" font-family="sans-serif" text-anchor="end"></g><g transform="translate(233.5,0)" fill="none" font-size="10" font-family="sans-serif" text-anchor="end"></g><g transform="translate(467,0)" fill="none" font-size="10" font-family="sans-serif" text-anchor="end"></g><g transform="translate(700.5,0)" fill="none" font-size="10" font-family="sans-serif" text-anchor="end"></g></g><g><g transform="translate(0,0)" fill="none" font-size="10" font-family="sans-serif" text-anchor="end"></g><g transform="translate(0,233.5)" fill="none" font-size="10" font-family="sans-serif" text-anchor="end"></g><g transform="translate(0,467)" fill="none" font-size="10" font-family="sans-serif" text-anchor="end"></g><g transform="translate(0,700.5)" fill="none" font-size="10" font-family="sans-serif" text-anchor="end"></g></g><g><g transform="translate(0,0)"><rect fill="none" stroke="#aaa" x="10.5" y="10.5" width="213.5" height="213.5"></rect></g><g transform="translate(0,233.5)"><rect fill="none" stroke="#aaa" x="10.5" y="10.5" width="213.5" height="213.5"></rect></g><g transform="translate(0,467)"><rect fill="none" stroke="#aaa" x="10.5" y="10.5" width="213.5" height="213.5"></rect></g><g transform="translate(0,700.5)"><rect fill="none" stroke="#aaa" x="10.5" y="10.5" width="213.5" height="213.5"></rect></g><g transform="translate(233.5,0)"><rect fill="none" stroke="#aaa" x="10.5" y="10.5" width="213.5" height="213.5"></rect></g><g transform="translate(233.5,233.5)"><rect fill="none" stroke="#aaa" x="10.5" y="10.5" width="213.5" height="213.5"></rect></g><g transform="translate(233.5,467)"><rect fill="none" stroke="#aaa" x="10.5" y="10.5" width="213.5" height="213.5"></rect></g><g transform="translate(233.5,700.5)"><rect fill="none" stroke="#aaa" x="10.5" y="10.5" width="213.5" height="213.5"></rect></g><g transform="translate(467,0)"><rect fill="none" stroke="#aaa" x="10.5" y="10.5" width="213.5" height="213.5"></rect></g><g transform="translate(467,233.5)"><rect fill="none" stroke="#aaa" x="10.5" y="10.5" width="213.5" height="213.5"></rect></g><g transform="translate(467,467)"><rect fill="none" stroke="#aaa" x="10.5" y="10.5" width="213.5" height="213.5"></rect></g><g transform="translate(467,700.5)"><rect fill="none" stroke="#aaa" x="10.5" y="10.5" width="213.5" height="213.5"></rect></g><g transform="translate(700.5,0)"><rect fill="none" stroke="#aaa" x="10.5" y="10.5" width="213.5" height="213.5"></rect></g><g transform="translate(700.5,233.5)"><rect fill="none" stroke="#aaa" x="10.5" y="10.5" width="213.5" height="213.5"></rect></g><g transform="translate(700.5,467)"><rect fill="none" stroke="#aaa" x="10.5" y="10.5" width="213.5" height="213.5"></rect></g><g transform="translate(700.5,700.5)"><rect fill="none" stroke="#aaa" x="10.5" y="10.5" width="213.5" height="213.5"></rect></g></g><g style="font: sans-serif 10px bold 10px;"><text transform="translate(0,0)" x="20" y="20" dy=".71em">culmen_length_mm</text><text transform="translate(233.5,233.5)" x="20" y="20" dy=".71em">culmen_depth_mm</text><text transform="translate(467,467)" x="20" y="20" dy=".71em">flipper_length_mm</text><text transform="translate(700.5,700.5)" x="20" y="20" dy=".71em">body_mass_g</text></g></svg>