<svg width="500" height="500" xmlns="http://www.w3.org/2000/svg" viewBox="-250,-250,500,500"><g stroke="white"><path fill="#471E01" d="M1.5308084989341916e-14,-250A250,250,0,0,1,96.26580865678496,-230.72254784406155L57.759485194070976,-138.43352870643693A150,150,0,0,0,9.184850993605149e-15,-150Z"><title>&lt;5: 19,912,018</title></path><path fill="#5E2802" d="M96.26580865678496,-230.72254784406155A250,250,0,0,1,179.73292303156873,-173.77018265090302L107.83975381894125,-104.26210959054181A150,150,0,0,0,57.759485194070976,-138.43352870643693Z"><title>5-9: 20,501,982</title></path><path fill="#763302" d="M179.73292303156873,-173.77018265090302A250,250,0,0,1,234.14858070947105,-87.60389347363687L140.48914842568263,-52.56233608418212A150,150,0,0,0,107.83975381894125,-104.26210959054181Z"><title>10-14: 20,679,786</title></path><path fill="#8E3D02" d="M234.14858070947105,-87.60389347363687A250,250,0,0,1,249.4574092810455,16.46210663277768L149.6744455686273,9.877263979666607A150,150,0,0,0,140.48914842568263,-52.56233608418212Z"><title>15-19: 21,354,481</title></path><path fill="#283" d="M249.4574092810455,16.46210663277768A250,250,0,0,1,217.6204510693328,123.0501494366428L130.5722706415997,73.83008966198568A150,150,0,0,0,149.6744455686273,9.877263979666607Z"><title>20-24: 22,604,232</title></path><path fill="#283" d="M217.6204510693328,123.0501494366428A250,250,0,0,1,146.36554254443215,202.6749317396555L87.8193255266593,121.6049590437933A150,150,0,0,0,130.5722706415997,73.83008966198568Z"><title>25-29: 21,698,010</title></path><path fill="#283" d="M146.36554254443215,202.6749317396555A250,250,0,0,1,50.87479264239162,244.76877961372782L30.524875585434973,146.86126776823667A150,150,0,0,0,87.8193255266593,121.6049590437933Z"><title>30-34: 21,183,639</title></path><path fill="#283" d="M50.87479264239162,244.76877961372782A250,250,0,0,1,-47.02553487415528,245.53736797033483L-28.215320924493167,147.32242078220088A150,150,0,0,0,30.524875585434973,146.86126776823667Z"><title>35-39: 19,855,782</title></path><path fill="#283" d="M-47.02553487415528,245.53736797033483A250,250,0,0,1,-141.58461807907443,206.04318946134237L-84.95077084744466,123.62591367680542A150,150,0,0,0,-28.215320924493167,147.32242078220088Z"><title>40-44: 20,796,128</title></path><path fill="#283" d="M-141.58461807907443,206.04318946134237A250,250,0,0,1,-213.84482372325817,129.50054581648928L-128.3068942339549,77.70032748989357A150,150,0,0,0,-84.95077084744466,123.62591367680542Z"><title>45-49: 21,370,368</title></path><path fill="#283" d="M-213.84482372325817,129.50054581648928A250,250,0,0,1,-248.81613847603134,24.30080726799833L-149.2896830856188,14.580484360798998A150,150,0,0,0,-128.3068942339549,77.70032748989357Z"><title>50-54: 22,525,490</title></path><path fill="#283" d="M-248.81613847603134,24.30080726799833A250,250,0,0,1,-237.34376973492314,-78.53620163985387L-142.40626184095387,-47.121720983912326A150,150,0,0,0,-149.2896830856188,14.580484360798998Z"><title>55-59: 21,001,947</title></path><path fill="#283" d="M-237.34376973492314,-78.53620163985387A250,250,0,0,1,-193.58450490697587,-158.1930449163965L-116.15070294418553,-94.91582694983789A150,150,0,0,0,-142.40626184095387,-47.121720983912326Z"><title>60-64: 18,415,681</title></path><path fill="#283" d="M-193.58450490697587,-158.1930449163965A250,250,0,0,1,-140.51716671829098,-206.77264291357312L-84.31030003097459,-124.06358574814386A150,150,0,0,0,-116.15070294418553,-94.91582694983789Z"><title>65-69: 14,547,446</title></path><path fill="#283" d="M-140.51716671829098,-206.77264291357312A250,250,0,0,1,-94.28502920822328,-231.5390534385171L-56.571017524933964,-138.92343206311025A150,150,0,0,0,-84.31030003097459,-124.06358574814386Z"><title>70-74: 10,587,721</title></path><path fill="#283" d="M-94.28502920822328,-231.5390534385171A250,250,0,0,1,-57.786285923168556,-243.22981963403626L-34.67177155390113,-145.93789178042175A150,150,0,0,0,-56.571017524933964,-138.92343206311025Z"><title>75-79: 7,730,129</title></path><path fill="#283" d="M-57.786285923168556,-243.22981963403626A250,250,0,0,1,-29.40453276485474,-248.26472454394437L-17.642719658912842,-148.95883472636663A150,150,0,0,0,-34.67177155390113,-145.93789178042175Z"><title>80-84: 5,811,429</title></path><path fill="#F2934F" d="M-29.40453276485474,-248.26472454394437A250,250,0,0,1,-4.5924254968025744e-14,-250L-2.7554552980815446e-14,-150A150,150,0,0,0,-17.642719658912842,-148.95883472636663Z"><title>≥85: 5,938,752</title></path></g><g font-family="sans-serif" font-size="12" text-anchor="middle"><text transform="translate(39.270805600026556,-196.106613421182)"><tspan y="-0.4em" font-weight="bold">&lt;5</tspan><tspan x="0" y="0.7em" fill-opacity="0.7">19,912,018</tspan></text><text transform="translate(112.72541633166833,-165.20587311851853)"><tspan y="-0.4em" font-weight="bold">5-9</tspan><tspan x="0" y="0.7em" fill-opacity="0.7">20,501,982</tspan></text><text transform="translate(169.10234937671308,-106.79136404820413)"><tspan y="-0.4em" font-weight="bold">10-14</tspan><tspan x="0" y="0.7em" fill-opacity="0.7">20,679,786</tspan></text><text transform="translate(197.87045698955907,-29.108113142954767)"><tspan y="-0.4em" font-weight="bold">15-19</tspan><tspan x="0" y="0.7em" fill-opacity="0.7">21,354,481</tspan></text><text transform="translate(191.6341257702275,57.23951292840134)"><tspan y="-0.4em" font-weight="bold">20-24</tspan><tspan x="0" y="0.7em" fill-opacity="0.7">22,604,232</tspan></text><text transform="translate(149.0373963829492,133.37111561125852)"><tspan y="-0.4em" font-weight="bold">25-29</tspan><tspan x="0" y="0.7em" fill-opacity="0.7">21,698,010</tspan></text><text transform="translate(80.67281262329324,183.0079159584279)"><tspan y="-0.4em" font-weight="bold">30-34</tspan><tspan x="0" y="0.7em" fill-opacity="0.7">21,183,639</tspan></text><text transform="translate(1.570096222694124,199.9938368996692)"><tspan y="-0.4em" font-weight="bold">35-39</tspan><tspan x="0" y="0.7em" fill-opacity="0.7">19,855,782</tspan></text><text transform="translate(-77.08030091600922,184.5497960191164)"><tspan y="-0.4em" font-weight="bold">40-44</tspan><tspan x="0" y="0.7em" fill-opacity="0.7">20,796,128</tspan></text><text transform="translate(-145.4311462629987,137.29450716117626)"><tspan y="-0.4em" font-weight="bold">45-49</tspan><tspan x="0" y="0.7em" fill-opacity="0.7">21,370,368</tspan></text><text transform="translate(-189.7881559776977,63.090853937675405)"><tspan y="-0.4em" font-weight="bold">50-54</tspan><tspan x="0" y="0.7em" fill-opacity="0.7">22,525,490</tspan></text><text transform="translate(-198.76696174275938,-22.174194902012232)"><tspan y="-0.4em" font-weight="bold">55-59</tspan><tspan x="0" y="0.7em" fill-opacity="0.7">21,001,947</tspan></text><text transform="translate(-175.29147865957546,-96.29588521499555)"><tspan y="-0.4em" font-weight="bold">60-64</tspan><tspan x="0" y="0.7em" fill-opacity="0.7">18,415,681</tspan></text><text transform="translate(-135.04600953711446,-147.52144016413885)"><tspan y="-0.4em" font-weight="bold">65-69</tspan><tspan x="0" y="0.7em" fill-opacity="0.7">14,547,446</tspan></text><text transform="translate(-94.44189434966101,-176.2972733528442)"><tspan y="-0.4em" font-weight="bold">70-74</tspan></text><text transform="translate(-61.0080111461167,-190.4679043198494)"><tspan y="-0.4em" font-weight="bold">75-79</tspan></text><text transform="translate(-34.93442801807875,-196.92533036420093)"><tspan y="-0.4em" font-weight="bold">80-84</tspan></text><text transform="translate(-11.782276371077415,-199.65264326703905)"><tspan y="-0.4em" font-weight="bold">≥85</tspan></text></g></svg>