<svg width="500" height="500" xmlns="http://www.w3.org/2000/svg" viewBox="-250,-250,500,500"><g stroke="white"><path fill="rgb(66, 136, 181)" d="M1.5246852649384548e-14,-249A249,249,0,0,1,95.88074542215782,-229.79965765268528L0,0Z"><title>&lt;5: 19,912,018</title></path><path fill="rgb(77, 163, 177)" d="M95.88074542215782,-229.79965765268528A249,249,0,0,1,179.01399133944247,-173.0751019202994L0,0Z"><title>5-9: 20,501,982</title></path><path fill="rgb(101, 186, 170)" d="M179.01399133944247,-173.0751019202994A249,249,0,0,1,233.21198638663319,-87.25347789974232L0,0Z"><title>10-14: 20,679,786</title></path><path fill="rgb(131, 204, 165)" d="M233.21198638663319,-87.25347789974232A249,249,0,0,1,248.45957964392133,16.396258206246568L0,0Z"><title>15-19: 21,354,481</title></path><path fill="rgb(162, 217, 163)" d="M248.45957964392133,16.396258206246568A249,249,0,0,1,216.74996926505548,122.55794883889624L0,0Z"><title>20-24: 22,604,232</title></path><path fill="rgb(191, 229, 160)" d="M216.74996926505548,122.55794883889624A249,249,0,0,1,145.78008037425442,201.86423201269687L0,0Z"><title>25-29: 21,698,010</title></path><path fill="rgb(216, 239, 159)" d="M145.78008037425442,201.86423201269687A249,249,0,0,1,50.671293471822054,243.7897044952729L0,0Z"><title>30-34: 21,183,639</title></path><path fill="rgb(235, 247, 166)" d="M50.671293471822054,243.7897044952729A249,249,0,0,1,-46.837432734658655,244.55521849845348L0,0Z"><title>35-39: 19,855,782</title></path><path fill="rgb(247, 250, 175)" d="M-46.837432734658655,244.55521849845348A249,249,0,0,1,-141.01827960675814,205.219016703497L0,0Z"><title>40-44: 20,796,128</title></path><path fill="rgb(253, 245, 172)" d="M-141.01827960675814,205.219016703497A249,249,0,0,1,-212.98944442836512,128.98254363322334L0,0Z"><title>45-49: 21,370,368</title></path><path fill="rgb(254, 232, 154)" d="M-212.98944442836512,128.98254363322334A249,249,0,0,1,-247.82087392212722,24.203604038926336L0,0Z"><title>50-54: 22,525,490</title></path><path fill="rgb(254, 213, 133)" d="M-247.82087392212722,24.203604038926336A249,249,0,0,1,-236.39439465598343,-78.22205683329446L0,0Z"><title>55-59: 21,001,947</title></path><path fill="rgb(253, 191, 112)" d="M-236.39439465598343,-78.22205683329446A249,249,0,0,1,-192.81016688734798,-157.5602727367309L0,0Z"><title>60-64: 18,415,681</title></path><path fill="rgb(251, 165, 95)" d="M-192.81016688734798,-157.5602727367309A249,249,0,0,1,-139.95509805141782,-205.9455523419188L0,0Z"><title>65-69: 14,547,446</title></path><path fill="rgb(247, 136, 81)" d="M-139.95509805141782,-205.9455523419188A249,249,0,0,1,-93.90788909139039,-230.61289722476303L0,0Z"><title>70-74: 10,587,721</title></path><path fill="rgb(239, 109, 74)" d="M-93.90788909139039,-230.61289722476303A249,249,0,0,1,-57.555140779475884,-242.2569003555001L0,0Z"><title>75-79: 7,730,129</title></path><path fill="rgb(227, 84, 73)" d="M-57.555140779475884,-242.2569003555001A249,249,0,0,1,-29.28691463379532,-247.2716656457686L0,0Z"><title>80-84: 5,811,429</title></path><path fill="rgb(209, 60, 75)" d="M-29.28691463379532,-247.2716656457686A249,249,0,0,1,-4.574055794815364e-14,-249L0,0Z"><title>≥85: 5,938,752</title></path></g><g font-family="sans-serif" font-size="12" text-anchor="middle"><text transform="translate(39.270805600026556,-196.106613421182)"><tspan y="-0.4em" font-weight="bold">&lt;5</tspan><tspan x="0" y="0.7em" fill-opacity="0.7">19,912,018</tspan></text><text transform="translate(112.72541633166833,-165.20587311851853)"><tspan y="-0.4em" font-weight="bold">5-9</tspan><tspan x="0" y="0.7em" fill-opacity="0.7">20,501,982</tspan></text><text transform="translate(169.10234937671308,-106.79136404820413)"><tspan y="-0.4em" font-weight="bold">10-14</tspan><tspan x="0" y="0.7em" fill-opacity="0.7">20,679,786</tspan></text><text transform="translate(197.87045698955907,-29.108113142954767)"><tspan y="-0.4em" font-weight="bold">15-19</tspan><tspan x="0" y="0.7em" fill-opacity="0.7">21,354,481</tspan></text><text transform="translate(191.6341257702275,57.23951292840134)"><tspan y="-0.4em" font-weight="bold">20-24</tspan><tspan x="0" y="0.7em" fill-opacity="0.7">22,604,232</tspan></text><text transform="translate(149.0373963829492,133.37111561125852)"><tspan y="-0.4em" font-weight="bold">25-29</tspan><tspan x="0" y="0.7em" fill-opacity="0.7">21,698,010</tspan></text><text transform="translate(80.67281262329324,183.0079159584279)"><tspan y="-0.4em" font-weight="bold">30-34</tspan><tspan x="0" y="0.7em" fill-opacity="0.7">21,183,639</tspan></text><text transform="translate(1.570096222694124,199.9938368996692)"><tspan y="-0.4em" font-weight="bold">35-39</tspan><tspan x="0" y="0.7em" fill-opacity="0.7">19,855,782</tspan></text><text transform="translate(-77.08030091600922,184.5497960191164)"><tspan y="-0.4em" font-weight="bold">40-44</tspan><tspan x="0" y="0.7em" fill-opacity="0.7">20,796,128</tspan></text><text transform="translate(-145.4311462629987,137.29450716117626)"><tspan y="-0.4em" font-weight="bold">45-49</tspan><tspan x="0" y="0.7em" fill-opacity="0.7">21,370,368</tspan></text><text transform="translate(-189.7881559776977,63.090853937675405)"><tspan y="-0.4em" font-weight="bold">50-54</tspan><tspan x="0" y="0.7em" fill-opacity="0.7">22,525,490</tspan></text><text transform="translate(-198.76696174275938,-22.174194902012232)"><tspan y="-0.4em" font-weight="bold">55-59</tspan><tspan x="0" y="0.7em" fill-opacity="0.7">21,001,947</tspan></text><text transform="translate(-175.29147865957546,-96.29588521499555)"><tspan y="-0.4em" font-weight="bold">60-64</tspan><tspan x="0" y="0.7em" fill-opacity="0.7">18,415,681</tspan></text><text transform="translate(-135.04600953711446,-147.52144016413885)"><tspan y="-0.4em" font-weight="bold">65-69</tspan><tspan x="0" y="0.7em" fill-opacity="0.7">14,547,446</tspan></text><text transform="translate(-94.44189434966101,-176.2972733528442)"><tspan y="-0.4em" font-weight="bold">70-74</tspan></text><text transform="translate(-61.0080111461167,-190.4679043198494)"><tspan y="-0.4em" font-weight="bold">75-79</tspan></text><text transform="translate(-34.93442801807875,-196.92533036420093)"><tspan y="-0.4em" font-weight="bold">80-84</tspan></text><text transform="translate(-11.782276371077415,-199.65264326703905)"><tspan y="-0.4em" font-weight="bold">≥85</tspan></text></g></svg>