<svg viewBox="-50,-80,930,580" width="930" height="580" xmlns="http://www.w3.org/2000/svg"><g transform="translate(60, 60)"></g><g transform="translate(0, 480)" fill="none" font-size="10" font-family="sans-serif" text-anchor="middle"><path class="domain" stroke="currentColor" d="M0.5,6V0.5H880.5V6"></path><g class="tick" opacity="1" transform="translate(51.764705882352935,0)"><line stroke="currentColor" y2="6"></line><text fill="currentColor" y="9" dy="0.71em">Rust</text></g><g class="tick" opacity="1" transform="translate(138.0392156862745,0)"><line stroke="currentColor" y2="6"></line><text fill="currentColor" y="9" dy="0.71em">Kotlin</text></g><g class="tick" opacity="1" transform="translate(224.31372549019605,0)"><line stroke="currentColor" y2="6"></line><text fill="currentColor" y="9" dy="0.71em">Python</text></g><g class="tick" opacity="1" transform="translate(310.5882352941176,0)"><line stroke="currentColor" y2="6"></line><text fill="currentColor" y="9" dy="0.71em">TypeScript</text></g><g class="tick" opacity="1" transform="translate(396.86274509803917,0)"><line stroke="currentColor" y2="6"></line><text fill="currentColor" y="9" dy="0.71em">Go</text></g><g class="tick" opacity="1" transform="translate(483.1372549019607,0)"><line stroke="currentColor" y2="6"></line><text fill="currentColor" y="9" dy="0.71em">Swift</text></g><g class="tick" opacity="1" transform="translate(569.4117647058823,0)"><line stroke="currentColor" y2="6"></line><text fill="currentColor" y="9" dy="0.71em">JavaScript</text></g><g class="tick" opacity="1" transform="translate(655.6862745098039,0)"><line stroke="currentColor" y2="6"></line><text fill="currentColor" y="9" dy="0.71em">C#</text></g><g class="tick" opacity="1" transform="translate(741.9607843137254,0)"><line stroke="currentColor" y2="6"></line><text fill="currentColor" y="9" dy="0.71em">F#</text></g><g class="tick" opacity="1" transform="translate(828.235294117647,0)"><line stroke="currentColor" y2="6"></line><text fill="currentColor" y="9" dy="0.71em">Clojure</text></g></g><g fill="none" font-size="10" font-family="sans-serif" text-anchor="end"><path class="domain" stroke="currentColor" d="M-6,480.5H0.5V0.5H-6"></path><g class="tick" opacity="1" transform="translate(0,480.5)"><line stroke="currentColor" x2="-6"></line><text fill="currentColor" x="-9" dy="0.32em">0</text></g><g class="tick" opacity="1" transform="translate(0,432.5)"><line stroke="currentColor" x2="-6"></line><text fill="currentColor" x="-9" dy="0.32em">10</text></g><g class="tick" opacity="1" transform="translate(0,384.5)"><line stroke="currentColor" x2="-6"></line><text fill="currentColor" x="-9" dy="0.32em">20</text></g><g class="tick" opacity="1" transform="translate(0,336.5)"><line stroke="currentColor" x2="-6"></line><text fill="currentColor" x="-9" dy="0.32em">30</text></g><g class="tick" opacity="1" transform="translate(0,288.5)"><line stroke="currentColor" x2="-6"></line><text fill="currentColor" x="-9" dy="0.32em">40</text></g><g class="tick" opacity="1" transform="translate(0,240.5)"><line stroke="currentColor" x2="-6"></line><text fill="currentColor" x="-9" dy="0.32em">50</text></g><g class="tick" opacity="1" transform="translate(0,192.5)"><line stroke="currentColor" x2="-6"></line><text fill="currentColor" x="-9" dy="0.32em">60</text></g><g class="tick" opacity="1" transform="translate(0,144.50000000000003)"><line stroke="currentColor" x2="-6"></line><text fill="currentColor" x="-9" dy="0.32em">70</text></g><g class="tick" opacity="1" transform="translate(0,96.49999999999997)"><line stroke="currentColor" x2="-6"></line><text fill="currentColor" x="-9" dy="0.32em">80</text></g><g class="tick" opacity="1" transform="translate(0,48.499999999999986)"><line stroke="currentColor" x2="-6"></line><text fill="currentColor" x="-9" dy="0.32em">90</text></g><g class="tick" opacity="1" transform="translate(0,0.5)"><line stroke="currentColor" x2="-6"></line><text fill="currentColor" x="-9" dy="0.32em">100</text></g></g><rect x="17.25490196078431" y="101.27999999999999" height="378.72" width="69.01960784313725" style="fill: #000000;"></rect><rect x="103.52941176470587" y="119.52000000000005" height="360.47999999999996" width="69.01960784313725" style="fill: #00a2ee;"></rect><rect x="189.80392156862743" y="153.59999999999997" height="326.40000000000003" width="69.01960784313725" style="fill: #fbcb39;"></rect><rect x="276.078431372549" y="158.39999999999998" height="321.6" width="69.01960784313725" style="fill: #007bc8;"></rect><rect x="362.35294117647055" y="165.12000000000003" height="314.88" width="69.01960784313725" style="fill: #65cedb;"></rect><rect x="448.6274509803921" y="167.52000000000004" height="312.47999999999996" width="69.01960784313725" style="fill: #ff6e52;"></rect><rect x="534.9019607843137" y="182.88" height="297.12" width="69.01960784313725" style="fill: #f9de3f;"></rect><rect x="621.1764705882352" y="190.08" height="289.91999999999996" width="69.01960784313725" style="fill: #5d2f8e;"></rect><rect x="707.4509803921568" y="193.92000000000002" height="286.08" width="69.01960784313725" style="fill: #008fc9;"></rect><rect x="793.7254901960783" y="193.92000000000002" height="286.08" width="69.01960784313725" style="fill: #507dca;"></rect><g class="grid" fill="none" font-size="10" font-family="sans-serif" text-anchor="end"><path class="domain" stroke="currentColor" d="M880,480.5H0.5V0.5H880"></path><g class="tick" opacity="1" transform="translate(0,480.5)"><line stroke="currentColor" x2="880"></line><text fill="currentColor" x="-3" dy="0.32em"></text></g><g class="tick" opacity="1" transform="translate(0,432.5)"><line stroke="currentColor" x2="880"></line><text fill="currentColor" x="-3" dy="0.32em"></text></g><g class="tick" opacity="1" transform="translate(0,384.5)"><line stroke="currentColor" x2="880"></line><text fill="currentColor" x="-3" dy="0.32em"></text></g><g class="tick" opacity="1" transform="translate(0,336.5)"><line stroke="currentColor" x2="880"></line><text fill="currentColor" x="-3" dy="0.32em"></text></g><g class="tick" opacity="1" transform="translate(0,288.5)"><line stroke="currentColor" x2="880"></line><text fill="currentColor" x="-3" dy="0.32em"></text></g><g class="tick" opacity="1" transform="translate(0,240.5)"><line stroke="currentColor" x2="880"></line><text fill="currentColor" x="-3" dy="0.32em"></text></g><g class="tick" opacity="1" transform="translate(0,192.5)"><line stroke="currentColor" x2="880"></line><text fill="currentColor" x="-3" dy="0.32em"></text></g><g class="tick" opacity="1" transform="translate(0,144.50000000000003)"><line stroke="currentColor" x2="880"></line><text fill="currentColor" x="-3" dy="0.32em"></text></g><g class="tick" opacity="1" transform="translate(0,96.49999999999997)"><line stroke="currentColor" x2="880"></line><text fill="currentColor" x="-3" dy="0.32em"></text></g><g class="tick" opacity="1" transform="translate(0,48.499999999999986)"><line stroke="currentColor" x2="880"></line><text fill="currentColor" x="-3" dy="0.32em"></text></g><g class="tick" opacity="1" transform="translate(0,0.5)"><line stroke="currentColor" x2="880"></line><text fill="currentColor" x="-3" dy="0.32em"></text></g></g><text x="-240" y="-30" transform="rotate(-90)" text-anchor="middle">Love meter (%)</text><text x="500" y="-20" text-anchor="middle">Most loved programming languages in 2018</text></svg>