<svg viewBox="-50,-80,930,580" width="930" height="580" xmlns="http://www.w3.org/2000/svg"><g transform="translate(60, 60)"></g><g transform="translate(0, 480)" fill="none" font-size="10" font-family="sans-serif" text-anchor="middle"><path class="domain" stroke="currentColor" d="M0.5,6V0.5H880.5V6"></path><g class="tick" opacity="1" transform="translate(440,0)"><line stroke="currentColor" y2="6"></line><text fill="currentColor" y="9" dy="0.71em"></text></g></g><g fill="none" font-size="10" font-family="sans-serif" text-anchor="end"><path class="domain" stroke="currentColor" d="M-6,480.5H0.5V0.5H-6"></path><g class="tick" opacity="1" transform="translate(0,480.5)"><line stroke="currentColor" x2="-6"></line><text fill="currentColor" x="-9" dy="0.32em">0</text></g><g class="tick" opacity="1" transform="translate(0,432.5)"><line stroke="currentColor" x2="-6"></line><text fill="currentColor" x="-9" dy="0.32em">10</text></g><g class="tick" opacity="1" transform="translate(0,384.5)"><line stroke="currentColor" x2="-6"></line><text fill="currentColor" x="-9" dy="0.32em">20</text></g><g class="tick" opacity="1" transform="translate(0,336.5)"><line stroke="currentColor" x2="-6"></line><text fill="currentColor" x="-9" dy="0.32em">30</text></g><g class="tick" opacity="1" transform="translate(0,288.5)"><line stroke="currentColor" x2="-6"></line><text fill="currentColor" x="-9" dy="0.32em">40</text></g><g class="tick" opacity="1" transform="translate(0,240.5)"><line stroke="currentColor" x2="-6"></line><text fill="currentColor" x="-9" dy="0.32em">50</text></g><g class="tick" opacity="1" transform="translate(0,192.5)"><line stroke="currentColor" x2="-6"></line><text fill="currentColor" x="-9" dy="0.32em">60</text></g><g class="tick" opacity="1" transform="translate(0,144.50000000000003)"><line stroke="currentColor" x2="-6"></line><text fill="currentColor" x="-9" dy="0.32em">70</text></g><g class="tick" opacity="1" transform="translate(0,96.49999999999997)"><line stroke="currentColor" x2="-6"></line><text fill="currentColor" x="-9" dy="0.32em">80</text></g><g class="tick" opacity="1" transform="translate(0,48.499999999999986)"><line stroke="currentColor" x2="-6"></line><text fill="currentColor" x="-9" dy="0.32em">90</text></g><g class="tick" opacity="1" transform="translate(0,0.5)"><line stroke="currentColor" x2="-6"></line><text fill="currentColor" x="-9" dy="0.32em">100</text></g></g><g class="grid" fill="none" font-size="10" font-family="sans-serif" text-anchor="end"><path class="domain" stroke="currentColor" d="M880,480.5H0.5V0.5H880"></path><g class="tick" opacity="1" transform="translate(0,480.5)"><line stroke="currentColor" x2="880"></line><text fill="currentColor" x="-3" dy="0.32em"></text></g><g class="tick" opacity="1" transform="translate(0,432.5)"><line stroke="currentColor" x2="880"></line><text fill="currentColor" x="-3" dy="0.32em"></text></g><g class="tick" opacity="1" transform="translate(0,384.5)"><line stroke="currentColor" x2="880"></line><text fill="currentColor" x="-3" dy="0.32em"></text></g><g class="tick" opacity="1" transform="translate(0,336.5)"><line stroke="currentColor" x2="880"></line><text fill="currentColor" x="-3" dy="0.32em"></text></g><g class="tick" opacity="1" transform="translate(0,288.5)"><line stroke="currentColor" x2="880"></line><text fill="currentColor" x="-3" dy="0.32em"></text></g><g class="tick" opacity="1" transform="translate(0,240.5)"><line stroke="currentColor" x2="880"></line><text fill="currentColor" x="-3" dy="0.32em"></text></g><g class="tick" opacity="1" transform="translate(0,192.5)"><line stroke="currentColor" x2="880"></line><text fill="currentColor" x="-3" dy="0.32em"></text></g><g class="tick" opacity="1" transform="translate(0,144.50000000000003)"><line stroke="currentColor" x2="880"></line><text fill="currentColor" x="-3" dy="0.32em"></text></g><g class="tick" opacity="1" transform="translate(0,96.49999999999997)"><line stroke="currentColor" x2="880"></line><text fill="currentColor" x="-3" dy="0.32em"></text></g><g class="tick" opacity="1" transform="translate(0,48.499999999999986)"><line stroke="currentColor" x2="880"></line><text fill="currentColor" x="-3" dy="0.32em"></text></g><g class="tick" opacity="1" transform="translate(0,0.5)"><line stroke="currentColor" x2="880"></line><text fill="currentColor" x="-3" dy="0.32em"></text></g></g><defs><linearGradient id="grad" x1="0%" x2="0%" y1="0%" y2="100%"><stop style="stop-color: rgb(17, 34, 136); stop-opacity: 100%;" offset="0%"></stop><stop style="stop-color: rgb(85, 51, 136); stop-opacity: 100%;" offset="100%"></stop></linearGradient></defs><rect y="101.27999999999999" height="378.72" width="586.6666666666666" style="fill: url(#grad);" ry="20"></rect><rect y="119.52000000000005" height="360.47999999999996" width="586.6666666666666" style="fill: url(#grad);" ry="20"></rect><rect y="153.59999999999997" height="326.40000000000003" width="586.6666666666666" style="fill: url(#grad);" ry="20"></rect><rect y="158.39999999999998" height="321.6" width="586.6666666666666" style="fill: url(#grad);" ry="20"></rect><rect y="165.12000000000003" height="314.88" width="586.6666666666666" style="fill: url(#grad);" ry="20"></rect><rect y="167.52000000000004" height="312.47999999999996" width="586.6666666666666" style="fill: url(#grad);" ry="20"></rect><rect y="182.88" height="297.12" width="586.6666666666666" style="fill: url(#grad);" ry="20"></rect><rect y="190.08" height="289.91999999999996" width="586.6666666666666" style="fill: url(#grad);" ry="20"></rect><rect y="193.92000000000002" height="286.08" width="586.6666666666666" style="fill: url(#grad);" ry="20"></rect><rect y="193.92000000000002" height="286.08" width="586.6666666666666" style="fill: url(#grad);" ry="20"></rect></svg>