<svg viewBox="0,0,440,240" width="440" height="240" xmlns="http://www.w3.org/2000/svg"><g transform="translate(30, 30)"></g><g transform="translate(0, 240)" fill="none" font-size="10" font-family="sans-serif" text-anchor="middle"><path class="domain" stroke="currentColor" d="M0.5,6V0.5H440.5V6"></path><g class="tick" opacity="1" transform="translate(25.882352941176467,0)"><line stroke="currentColor" y2="6"></line><text fill="currentColor" y="9" dy="0.71em">Rust</text></g><g class="tick" opacity="1" transform="translate(69.01960784313725,0)"><line stroke="currentColor" y2="6"></line><text fill="currentColor" y="9" dy="0.71em">Kotlin</text></g><g class="tick" opacity="1" transform="translate(112.15686274509802,0)"><line stroke="currentColor" y2="6"></line><text fill="currentColor" y="9" dy="0.71em">Python</text></g><g class="tick" opacity="1" transform="translate(155.2941176470588,0)"><line stroke="currentColor" y2="6"></line><text fill="currentColor" y="9" dy="0.71em">TypeScript</text></g><g class="tick" opacity="1" transform="translate(198.43137254901958,0)"><line stroke="currentColor" y2="6"></line><text fill="currentColor" y="9" dy="0.71em">Go</text></g><g class="tick" opacity="1" transform="translate(241.56862745098036,0)"><line stroke="currentColor" y2="6"></line><text fill="currentColor" y="9" dy="0.71em">Swift</text></g><g class="tick" opacity="1" transform="translate(284.70588235294116,0)"><line stroke="currentColor" y2="6"></line><text fill="currentColor" y="9" dy="0.71em">JavaScript</text></g><g class="tick" opacity="1" transform="translate(327.84313725490193,0)"><line stroke="currentColor" y2="6"></line><text fill="currentColor" y="9" dy="0.71em">C#</text></g><g class="tick" opacity="1" transform="translate(370.9803921568627,0)"><line stroke="currentColor" y2="6"></line><text fill="currentColor" y="9" dy="0.71em">F#</text></g><g class="tick" opacity="1" transform="translate(414.1176470588235,0)"><line stroke="currentColor" y2="6"></line><text fill="currentColor" y="9" dy="0.71em">Clojure</text></g></g><g fill="none" font-size="10" font-family="sans-serif" text-anchor="end"><path class="domain" stroke="currentColor" d="M-6,240.5H0.5V0.5H-6"></path><g class="tick" opacity="1" transform="translate(0,240.5)"><line stroke="currentColor" x2="-6"></line><text fill="currentColor" x="-9" dy="0.32em">0</text></g><g class="tick" opacity="1" transform="translate(0,216.5)"><line stroke="currentColor" x2="-6"></line><text fill="currentColor" x="-9" dy="0.32em">10</text></g><g class="tick" opacity="1" transform="translate(0,192.5)"><line stroke="currentColor" x2="-6"></line><text fill="currentColor" x="-9" dy="0.32em">20</text></g><g class="tick" opacity="1" transform="translate(0,168.5)"><line stroke="currentColor" x2="-6"></line><text fill="currentColor" x="-9" dy="0.32em">30</text></g><g class="tick" opacity="1" transform="translate(0,144.5)"><line stroke="currentColor" x2="-6"></line><text fill="currentColor" x="-9" dy="0.32em">40</text></g><g class="tick" opacity="1" transform="translate(0,120.5)"><line stroke="currentColor" x2="-6"></line><text fill="currentColor" x="-9" dy="0.32em">50</text></g><g class="tick" opacity="1" transform="translate(0,96.5)"><line stroke="currentColor" x2="-6"></line><text fill="currentColor" x="-9" dy="0.32em">60</text></g><g class="tick" opacity="1" transform="translate(0,72.50000000000001)"><line stroke="currentColor" x2="-6"></line><text fill="currentColor" x="-9" dy="0.32em">70</text></g><g class="tick" opacity="1" transform="translate(0,48.499999999999986)"><line stroke="currentColor" x2="-6"></line><text fill="currentColor" x="-9" dy="0.32em">80</text></g><g class="tick" opacity="1" transform="translate(0,24.499999999999993)"><line stroke="currentColor" x2="-6"></line><text fill="currentColor" x="-9" dy="0.32em">90</text></g><g class="tick" opacity="1" transform="translate(0,0.5)"><line stroke="currentColor" x2="-6"></line><text fill="currentColor" x="-9" dy="0.32em">100</text></g></g><g class="grid" fill="none" font-size="10" font-family="sans-serif" text-anchor="end"><path class="domain" stroke="currentColor" d="M440,240.5H0.5V0.5H440"></path><g class="tick" opacity="1" transform="translate(0,240.5)"><line stroke="currentColor" x2="440"></line><text fill="currentColor" x="-3" dy="0.32em"></text></g><g class="tick" opacity="1" transform="translate(0,216.5)"><line stroke="currentColor" x2="440"></line><text fill="currentColor" x="-3" dy="0.32em"></text></g><g class="tick" opacity="1" transform="translate(0,192.5)"><line stroke="currentColor" x2="440"></line><text fill="currentColor" x="-3" dy="0.32em"></text></g><g class="tick" opacity="1" transform="translate(0,168.5)"><line stroke="currentColor" x2="440"></line><text fill="currentColor" x="-3" dy="0.32em"></text></g><g class="tick" opacity="1" transform="translate(0,144.5)"><line stroke="currentColor" x2="440"></line><text fill="currentColor" x="-3" dy="0.32em"></text></g><g class="tick" opacity="1" transform="translate(0,120.5)"><line stroke="currentColor" x2="440"></line><text fill="currentColor" x="-3" dy="0.32em"></text></g><g class="tick" opacity="1" transform="translate(0,96.5)"><line stroke="currentColor" x2="440"></line><text fill="currentColor" x="-3" dy="0.32em"></text></g><g class="tick" opacity="1" transform="translate(0,72.50000000000001)"><line stroke="currentColor" x2="440"></line><text fill="currentColor" x="-3" dy="0.32em"></text></g><g class="tick" opacity="1" transform="translate(0,48.499999999999986)"><line stroke="currentColor" x2="440"></line><text fill="currentColor" x="-3" dy="0.32em"></text></g><g class="tick" opacity="1" transform="translate(0,24.499999999999993)"><line stroke="currentColor" x2="440"></line><text fill="currentColor" x="-3" dy="0.32em"></text></g><g class="tick" opacity="1" transform="translate(0,0.5)"><line stroke="currentColor" x2="440"></line><text fill="currentColor" x="-3" dy="0.32em"></text></g></g><defs><linearGradient id="grad" x1="0%" x2="0%" y1="0%" y2="100%"><stop style="stop-color: rgb(85, 136, 255); stop-opacity: 100%;" offset="0%"></stop><stop style="stop-color: rgb(17, 34, 136); stop-opacity: 100%;" offset="50%"></stop><stop style="stop-color: rgb(85, 51, 136); stop-opacity: 100%;" offset="100%"></stop></linearGradient></defs><rect x="8.627450980392155" y="50.63999999999999" height="189.36" width="34.509803921568626" style="fill: url(#grad);" ry="20"></rect><rect x="51.764705882352935" y="59.760000000000026" height="180.23999999999998" width="34.509803921568626" style="fill: url(#grad);" ry="20"></rect><rect x="94.90196078431372" y="76.79999999999998" height="163.20000000000002" width="34.509803921568626" style="fill: url(#grad);" ry="20"></rect><rect x="138.0392156862745" y="79.19999999999999" height="160.8" width="34.509803921568626" style="fill: url(#grad);" ry="20"></rect><rect x="181.17647058823528" y="82.56000000000002" height="157.44" width="34.509803921568626" style="fill: url(#grad);" ry="20"></rect><rect x="224.31372549019605" y="83.76000000000002" height="156.23999999999998" width="34.509803921568626" style="fill: url(#grad);" ry="20"></rect><rect x="267.45098039215685" y="91.44" height="148.56" width="34.509803921568626" style="fill: url(#grad);" ry="20"></rect><rect x="310.5882352941176" y="95.04" height="144.95999999999998" width="34.509803921568626" style="fill: url(#grad);" ry="20"></rect><rect x="353.7254901960784" y="96.96000000000001" height="143.04" width="34.509803921568626" style="fill: url(#grad);" ry="20"></rect><rect x="396.86274509803917" y="96.96000000000001" height="143.04" width="34.509803921568626" style="fill: url(#grad);" ry="20"></rect></svg>