<svg width="500" height="500" xmlns="http://www.w3.org/2000/svg" viewBox="-1,-1,500,500"><g class="grid" stroke-width="1" fill="none" font-size="10" font-family="sans-serif" text-anchor="end"><path class="domain" stroke="currentColor" d="M500,495.5H0.5V5.5H500"></path><g class="tick" opacity="1" transform="translate(0,495.5)"><line stroke="currentColor" x2="500"></line><text fill="currentColor" x="-3" dy="0.32em"></text></g><g class="tick" opacity="1" transform="translate(0,446.5)"><line stroke="currentColor" x2="500"></line><text fill="currentColor" x="-3" dy="0.32em"></text></g><g class="tick" opacity="1" transform="translate(0,397.5)"><line stroke="currentColor" x2="500"></line><text fill="currentColor" x="-3" dy="0.32em"></text></g><g class="tick" opacity="1" transform="translate(0,348.5)"><line stroke="currentColor" x2="500"></line><text fill="currentColor" x="-3" dy="0.32em"></text></g><g class="tick" opacity="1" transform="translate(0,299.5)"><line stroke="currentColor" x2="500"></line><text fill="currentColor" x="-3" dy="0.32em"></text></g><g class="tick" opacity="1" transform="translate(0,250.5)"><line stroke="currentColor" x2="500"></line><text fill="currentColor" x="-3" dy="0.32em"></text></g><g class="tick" opacity="1" transform="translate(0,201.5)"><line stroke="currentColor" x2="500"></line><text fill="currentColor" x="-3" dy="0.32em"></text></g><g class="tick" opacity="1" transform="translate(0,152.50000000000003)"><line stroke="currentColor" x2="500"></line><text fill="currentColor" x="-3" dy="0.32em"></text></g><g class="tick" opacity="1" transform="translate(0,103.49999999999997)"><line stroke="currentColor" x2="500"></line><text fill="currentColor" x="-3" dy="0.32em"></text></g><g class="tick" opacity="1" transform="translate(0,54.499999999999986)"><line stroke="currentColor" x2="500"></line><text fill="currentColor" x="-3" dy="0.32em"></text></g><g class="tick" opacity="1" transform="translate(0,5.5)"><line stroke="currentColor" x2="500"></line><text fill="currentColor" x="-3" dy="0.32em"></text></g></g><g transform="translate(5,0)" fill="none" font-size="20" font-family="sans-serif" text-anchor="end"><g class="tick" opacity="1" transform="translate(0,495.5)"><line stroke="currentColor" x2="-6"></line><text fill="currentColor" x="-9" dy="0.32em">0</text></g><g class="tick" opacity="1" transform="translate(0,446.5)"><line stroke="currentColor" x2="-6"></line><text fill="currentColor" x="-9" dy="0.32em">10</text></g><g class="tick" opacity="1" transform="translate(0,397.5)"><line stroke="currentColor" x2="-6"></line><text fill="currentColor" x="-9" dy="0.32em">20</text></g><g class="tick" opacity="1" transform="translate(0,348.5)"><line stroke="currentColor" x2="-6"></line><text fill="currentColor" x="-9" dy="0.32em">30</text></g><g class="tick" opacity="1" transform="translate(0,299.5)"><line stroke="currentColor" x2="-6"></line><text fill="currentColor" x="-9" dy="0.32em">40</text></g><g class="tick" opacity="1" transform="translate(0,250.5)"><line stroke="currentColor" x2="-6"></line><text fill="currentColor" x="-9" dy="0.32em">50</text></g><g class="tick" opacity="1" transform="translate(0,201.5)"><line stroke="currentColor" x2="-6"></line><text fill="currentColor" x="-9" dy="0.32em">60</text></g><g class="tick" opacity="1" transform="translate(0,152.50000000000003)"><line stroke="currentColor" x2="-6"></line><text fill="currentColor" x="-9" dy="0.32em">70</text></g><g class="tick" opacity="1" transform="translate(0,103.49999999999997)"><line stroke="currentColor" x2="-6"></line><text fill="currentColor" x="-9" dy="0.32em">80</text></g><g class="tick" opacity="1" transform="translate(0,54.499999999999986)"><line stroke="currentColor" x2="-6"></line><text fill="currentColor" x="-9" dy="0.32em">90</text></g><g class="tick" opacity="1" transform="translate(0,5.5)"><line stroke="currentColor" x2="-6"></line><text fill="currentColor" x="-9" dy="0.32em">100</text><text fill="currentColor" x="-37" dy="0.32em" y="-25" text-anchor="start">Rendimento</text></g></g><g transform="translate(0,495)" fill="none" font-size="20" font-family="sans-serif" text-anchor="middle"><path class="domain" stroke="currentColor" d="M5.5,6V0.5H495.5V6"></path><g class="tick" opacity="1" transform="translate(5.5,0)"><line stroke="currentColor" y2="6"></line><text fill="currentColor" y="9" dy="0.71em">01/05</text></g><g class="tick" opacity="1" transform="translate(77.83333333333333,0)"><line stroke="currentColor" y2="6"></line><text fill="currentColor" y="9" dy="0.71em">01/06</text></g><g class="tick" opacity="1" transform="translate(147.83333333333334,0)"><line stroke="currentColor" y2="6"></line><text fill="currentColor" y="9" dy="0.71em">01/07</text></g><g class="tick" opacity="1" transform="translate(220.16666666666666,0)"><line stroke="currentColor" y2="6"></line><text fill="currentColor" y="9" dy="0.71em">01/08</text></g><g class="tick" opacity="1" transform="translate(292.5,0)"><line stroke="currentColor" y2="6"></line><text fill="currentColor" y="9" dy="0.71em">01/09</text></g><g class="tick" opacity="1" transform="translate(362.49999999999994,0)"><line stroke="currentColor" y2="6"></line><text fill="currentColor" y="9" dy="0.71em">01/10</text></g><g class="tick" opacity="1" transform="translate(434.8333333333333,0)"><line stroke="currentColor" y2="6"></line><text fill="currentColor" y="9" dy="0.71em">01/11</text><text fill="currentColor" y="32" dy="0.71em" x="-70" text-anchor="start">Data</text></g></g><path fill="none" stroke="#4F9" stroke-width="5" stroke-linejoin="round" stroke-linecap="round" d="M5,397C5,397,375.22222222222223,98.91666666666664,413.3333333333333,102.99999999999997C451.4444444444444,107.0833333333333,456.88888888888886,450.0833333333333,462.3333333333333,446C467.77777777777777,441.9166666666667,475.94444444444446,70.33333333333331,478.6666666666667,53.999999999999986C481.3888888888889,37.66666666666666,495,250,495,250"></path></svg>