<svg width="500" height="500" xmlns="http://www.w3.org/2000/svg" viewBox="-250,-250,500,500"><g stroke="white"><path fill="#4E00A1" d="M1.5308084989341916e-14,-250A250,250,0,0,1,228.6031557539531,-101.19583578059847L137.16189345237186,-60.71750146835908A150,150,0,0,0,9.184850993605149e-15,-150Z"><title>tipo 1: 18</title></path><path fill="#7133B4" d="M228.6031557539531,-101.19583578059847A250,250,0,0,1,234.6171055124401,86.34126360532689L140.77026330746406,51.804758163196134A150,150,0,0,0,137.16189345237186,-60.71750146835908Z"><title>tipo 2: 12</title></path><path fill="#9566C7" d="M234.6171055124401,86.34126360532689A250,250,0,0,1,47.78965717534312,245.38978924776634L28.673794305205874,147.2338735486598A150,150,0,0,0,140.77026330746406,51.804758163196134Z"><title>tipo 3: 16</title></path><path fill="#B899D9" d="M47.78965717534312,245.38978924776634A250,250,0,0,1,-122.67938800098439,217.82967603084737L-73.60763280059064,130.69780561850843A150,150,0,0,0,28.673794305205874,147.2338735486598Z"><title>tipo 4: 11</title></path><path fill="#1F0040" d="M-122.67938800098439,217.82967603084737A250,250,0,0,1,-239.6669632591651,71.13189665775829L-143.80017795549907,42.67913799465497A150,150,0,0,0,-73.60763280059064,130.69780561850843Z"><title>tipo 5: 12</title></path><path fill="#2F0061" d="M-239.6669632591651,71.13189665775829A250,250,0,0,1,-234.61710551244016,-86.34126360532676L-140.7702633074641,-51.804758163196055A150,150,0,0,0,-143.80017795549907,42.67913799465497Z"><title>tipo 6: 10</title></path><path fill="#3E0081" d="M-234.61710551244016,-86.34126360532676A250,250,0,0,1,-2.67968859893057e-13,-250L-1.6078131593583422e-13,-150A150,150,0,0,0,-140.7702633074641,-51.804758163196055Z"><title>tipo 7: 19</title></path></g><g font-family="sans-serif" font-size="12" text-anchor="middle"><text transform="translate(109.10698024210971,-167.61762097836814)"><tspan y="-0.4em" font-weight="bold">tipo 1</tspan><tspan x="0" y="0.7em" fill-opacity="0.7">18</tspan></text><text transform="translate(199.89724324013758,-6.410315514331054)"><tspan y="-0.4em" font-weight="bold">tipo 2</tspan><tspan x="0" y="0.7em" fill-opacity="0.7">12</tspan></text><text transform="translate(129.64567906155767,152.2891916738269)"><tspan y="-0.4em" font-weight="bold">tipo 3</tspan><tspan x="0" y="0.7em" fill-opacity="0.7">16</tspan></text><text transform="translate(-31.919979006675792,197.43635668289002)"><tspan y="-0.4em" font-weight="bold">tipo 4</tspan><tspan x="0" y="0.7em" fill-opacity="0.7">11</tspan></text><text transform="translate(-156.36629649360594,124.69796037174672)"><tspan y="-0.4em" font-weight="bold">tipo 5</tspan><tspan x="0" y="0.7em" fill-opacity="0.7">12</tspan></text><text transform="translate(-199.89724324013758,-6.410315514330807)"><tspan y="-0.4em" font-weight="bold">tipo 6</tspan><tspan x="0" y="0.7em" fill-opacity="0.7">10</tspan></text><text transform="translate(-114.423332024434,-164.03445091939113)"><tspan y="-0.4em" font-weight="bold">tipo 7</tspan><tspan x="0" y="0.7em" fill-opacity="0.7">19</tspan></text></g></svg>